<?xml version="1.0" standalone="no"?>
<!DOCTYPE svg PUBLIC "-//W3C//DTD SVG 1.1//EN" "http://www.w3.org/Graphics/SVG/1.1/DTD/svg11.dtd" >
<svg xmlns="http://www.w3.org/2000/svg">
<metadata>
Created by FontPrep 20130207 at Sat Aug 16 17:10:42 2014
 By Jeremy Trufier
(c) 2012 Microsoft Corporation. All Rights Reserved.
</metadata>
<defs>
<font id="c4d7ed968c58e3c9f1a9361353a93a1d" horiz-adv-x='1024' >
  <font-face 
    font-family="SegoeUISymbol"
    font-weight="400"
    font-stretch="normal"
    units-per-em="2048"
    panose-1="2 0 5 3 0 0 0 0 0 0"
    ascent="1638"
    descent="-410"
    bbox="-896 -1316 3397 2973"
    underline-thickness="119"
    underline-position="-119"
    unicode-range="U+000D-1F6C5"
  />
<missing-glyph horiz-adv-x="1024" 
 />
    <glyph glyph-name=".notdef" horiz-adv-x="1024" 
 />
    <glyph glyph-name=".null" horiz-adv-x="0" 
 />
    <glyph glyph-name="uni000D" unicode="&#xd;" horiz-adv-x="0" 
 />
    <glyph glyph-name="space" unicode=" " horiz-adv-x="561" 
 />
    <glyph glyph-name="uni2600" unicode="&#x2600;" horiz-adv-x="1726" 
d="M1321 1309q33 33 70 33t58 -21q22 -21 22 -57t-34 -71l-146 -146l-116 116zM1388 814h206q36 0 60 -18t32 -32q8 -16 8 -33q0 -33 -31 -57t-69 -24h-206v164zM283 1193q-34 34 -34 80t46 64q15 5 43 5t61 -33l146 -146l-116 -116zM332 650h-206q-36 0 -60 18t-32 32
t-8 31q0 35 31 59t69 24h206v-164zM1437 271q34 -34 34 -80t-46 -64q-15 -5 -43 -5t-61 33l-146 146l116 116zM399 155q-33 -33 -70 -33t-59 21q-21 21 -21 57t34 71l146 146l116 -116zM780 1262v206q0 36 18 60t32 32q16 8 33 8q33 0 57 -31t24 -69v-206h-164zM944 202
v-206q0 -36 -18 -60t-32 -32t-31 -8q-35 0 -59 31t-24 69v206h164zM461 729q0 167 119 282q118 117 282 117q86 0 156 -31q145 -63 208 -212q29 -73 29 -156q0 -175 -112 -289q-109 -120 -279 -120t-284 120q-55 54 -87 130t-32 159z" />
    <glyph glyph-name="uni2601" unicode="&#x2601;" horiz-adv-x="1779" 
d="M1312 1318q54 0 116 -28t110 -75q101 -103 101 -245v-9q65 -39 99 -103t34 -130q0 -117 -74 -206q-76 -82 -186 -94h-1195q-65 0 -121 26q-110 50 -164 166q-24 58 -24 122t25 122q50 114 166 167q55 24 122 26q89 102 218 102h4q25 127 122 209q98 82 229 82
q87 0 162 -40t125 -111q77 19 131 19zM363 964q-19 3 -53 3q-79 0 -148 -65q-66 -70 -66 -161q0 -90 66 -158q66 -66 159 -66h1182q80 11 131 66q51 56 51 134q1 69 -29 109q-30 39 -56 56q-23 19 -56 28q6 28 6 70q0 94 -74 173q-78 76 -196 76q-68 0 -136 -49
q-41 120 -168 168q-42 13 -90 13t-96 -21q-100 -43 -144 -144q-21 -50 -21 -105l1 -21l3 -21q-36 21 -92 21q-55 0 -101 -28t-73 -78z" />
    <glyph glyph-name="uni2602" unicode="&#x2602;" horiz-adv-x="1574" 
d="M975 1071q-99 0 -159 -58v-813q0 -118 -52 -172t-130 -53q-126 0 -166 117q-15 44 -15 108h57v-5q0 -161 124 -161t124 168v809q-65 60 -163 60t-161 -63h-26q-59 63 -156 63t-145 -63l-23 10q44 93 114 174q72 80 162 140q190 126 397 126l4 33h52l4 -33q206 0 395 -126
q190 -126 276 -314l-23 -10q-47 63 -145 63q-97 0 -156 -63h-27q-63 63 -162 63z" />
    <glyph glyph-name="uni2603" unicode="&#x2603;" horiz-adv-x="1441" 
d="M724 657h-11l-46 137h101zM1313 1348q0 -23 -16 -39t-39 -16q-22 0 -38 16t-16 39t16 39t38 16q23 0 39 -16t16 -39zM128 1348q0 23 16 39t39 16t39 -16q15 -17 15 -39t-15 -39q-16 -16 -39 -16t-39 16t-16 39zM662 532q0 23 16 39t39 16t39 -16q15 -17 15 -39t-15 -39
q-16 -16 -39 -16t-39 16t-16 39zM742 892q0 23 16 39t39 16t39 -16t16 -39t-16 -39t-39 -16t-39 16t-16 39zM436 1379q0 23 16 39t39 16t39 -16t16 -39t-16 -39t-39 -16t-39 16t-16 39zM75 1136q0 23 16 39t39 16t39 -16t16 -39t-16 -39t-39 -16t-39 16t-16 39zM1005 1379
q0 -23 -16 -39t-39 -16t-39 16t-16 39t16 39t39 16t39 -16t16 -39zM582 892q0 23 16 39t39 16t39 -16t16 -39t-16 -39t-39 -16t-39 16t-16 39zM1366 1136q0 -23 -16 -39t-39 -16t-39 16t-16 39t16 39t39 16t39 -16t16 -39zM717 293q-23 0 -39 16q-16 15 -16 39t16 40t39 16
t39 -16t15 -40q1 -24 -15 -39q-16 -16 -39 -16zM288 1221q0 23 16 39t40 16t39 -16q16 -16 16 -39t-16 -39q-15 -16 -39 -16t-40 16t-16 39zM1153 1221q0 -23 -16 -39t-39 -16t-40 16q-16 18 -16 39t16 39q17 16 40 16t39 -16t16 -39zM580 699q-192 -114 -192 -280t92 -262
t233 -96q144 0 237 97q89 97 89 238q0 186 -156 303v14q42 74 42 136q0 155 -123 210q-36 16 -83 16q-90 0 -148 -59t-58 -150q1 -33 17 -77t50 -76v-14zM426 855q0 142 98 220h-49v61h109v161h265v-161h116v-61h-46q93 -81 93 -209q0 -84 -40 -147q58 -47 89 -86l147 168
v189h54l-7 -136l96 108l44 -39l-97 -110l138 25l5 -55l-189 -22l-157 -177q46 -84 46 -184t-33 -177q-67 -155 -227 -217q-77 -31 -171 -31q-187 0 -308 121q-116 120 -116 307q0 97 55 186l-152 172l-189 22l6 55l137 -25l-97 110l44 39l96 -108l-7 135h53v-188l145 -163
q44 50 97 83q-48 60 -48 134z" />
    <glyph glyph-name="uni2604" unicode="&#x2604;" horiz-adv-x="1864" 
d="M966 751l601 325l59 -111l-601 -324zM520 689q-63 0 -114 -22q-104 -45 -154 -155q-22 -55 -22 -113t24 -113q48 -111 153 -154q50 -23 113 -23t114 22q104 45 154 155q22 55 22 113t-22 113q-51 112 -155 154q-50 23 -113 23zM946 399q0 -177 -124 -301
q-124 -123 -302 -123t-302 123t-124 301q0 177 126 300q126 122 300 122q175 0 300 -122q126 -123 126 -300zM1756 463v-129h-671l-4 129h675zM738 918l301 573l108 -53l-302 -574z" />
    <glyph glyph-name="uni2605" unicode="&#x2605;" horiz-adv-x="1706" 
d="M666 893l186 541l188 -541h566l-450 -355l175 -538l-479 319l-477 -319l175 538l-450 355h566z" />
    <glyph glyph-name="uni2606" unicode="&#x2606;" horiz-adv-x="1706" 
d="M392 793l275 -218l-107 -330l292 196l294 -196l-107 330l275 218h-346l-116 332l-114 -332h-346zM666 893l186 541l188 -541h566l-450 -355l175 -538l-479 319l-477 -319l175 538l-450 355h566z" />
    <glyph glyph-name="uni2607" unicode="&#x2607;" horiz-adv-x="1015" 
d="M120 692q-12 34 -12 84t40 108t151 169l380 381l91 -90l-385 -387q-89 -89 -116 -125q-26 -36 -26 -75q0 -38 27 -73t129 -137l359 -363l2 175l97 104l-8 -458l-5 -5l-454 -8l105 97l169 2l-357 360q-113 113 -144 160t-43 81z" />
    <glyph glyph-name="uni2608" unicode="&#x2608;" horiz-adv-x="1600" 
d="M289 1315v-1315h-124v1434h1190v-90l-385 -387q-91 -91 -117 -127q-25 -36 -25 -62t4 -40t25 -44q29 -40 127 -137l359 -363l2 175l97 104l-8 -458l-5 -5l-454 -8l105 97l169 2l-357 360q-116 116 -148 163q-32 48 -42 77t-9 82q0 53 40 111t151 169l261 262h-856z" />
    <glyph glyph-name="uni2609" unicode="&#x2609;" horiz-adv-x="1726" 
d="M752 732q0 45 24 70q41 43 87 43q47 -1 71 -25q42 -42 42 -89t-34 -79t-68 -32t-54 9q-68 31 -68 103zM1346 732q0 104 -37 193q-76 184 -255 259q-88 38 -190 38q-208 0 -346 -142t-138 -348q0 -104 37 -194q76 -185 254 -259q91 -38 193 -38q205 0 344 142
q138 142 138 349zM1496 732q0 -259 -186 -443q-84 -83 -200 -132t-247 -49t-247 49q-236 100 -336 330q-50 115 -50 245q0 258 186 442q185 181 447 181q133 -1 247 -49q236 -100 336 -330q50 -114 50 -244z" />
    <glyph glyph-name="uni260A" unicode="&#x260a;" horiz-adv-x="1560" 
d="M392 443q-79 0 -120 -47q-49 -44 -49 -124q0 -79 49 -123q45 -49 117 -49q112 0 157 106q14 32 14 70t-13 66q-25 62 -89 88q-30 12 -66 13zM1050 396q-49 -44 -49 -124q0 -79 49 -123q45 -49 116 -49q72 0 120 50q21 19 38 54q13 36 13 72q0 75 -49 120q-45 47 -121 47
t-117 -47zM1342 879q0 227 -153 346q-153 120 -412 120t-410 -118q-150 -118 -150 -348q0 -184 90 -322q23 3 41 8q18 4 60 4q42 -1 98 -23q54 -22 95 -62q88 -86 88 -210t-87 -213q-88 -86 -212 -86q-60 1 -114 23q-113 47 -158 158q-24 54 -24 118q0 146 110 231
q-110 168 -110 374q0 273 194 431q186 148 490 148q308 0 498 -153t190 -426q0 -203 -113 -374q113 -84 113 -231q0 -64 -23 -118q-48 -113 -159 -158q-56 -23 -116 -23q-60 1 -114 23q-113 47 -158 158q-24 54 -24 118q0 126 86 212q87 83 209 83q21 0 41 -3l42 -9
q92 140 92 322z" />
    <glyph glyph-name="uni260B" unicode="&#x260b;" horiz-adv-x="1560" 
d="M512 1038q48 48 48 119t-51 127q-49 49 -121 49t-116 -49q-49 -44 -49 -125q0 -39 13 -69q44 -100 154 -100q74 0 122 48zM1169 990q73 0 121 48t47 121q0 35 -13 69q-50 105 -158 105q-72 0 -116 -49q-49 -44 -49 -122q-1 -76 47 -124t121 -48zM204 928
q-110 85 -110 221q0 137 86 223t211 86q123 0 211 -86q87 -91 87 -214q-1 -123 -87 -209q-86 -85 -213 -85q-34 0 -82 12q-90 -138 -90 -322q1 -228 151 -347t408 -119t412 119t154 347q0 182 -92 322q-56 -12 -100 -12t-99 22q-110 46 -156 155q-23 55 -23 118t23 117
q48 113 158 159q55 23 115 23t116 -22q112 -46 158 -158q24 -55 24 -119q0 -147 -113 -231q113 -171 113 -374q0 -273 -196 -431q-88 -71 -218 -109t-274 -39q-144 1 -272 39t-219 111q-193 155 -193 429q0 206 110 374z" />
    <glyph glyph-name="uni260C" unicode="&#x260c;" horiz-adv-x="1040" 
d="M520 1008q-117 0 -206 -84q-84 -89 -84 -206t84 -206q89 -84 206 -84t206 84q84 89 84 206t-84 206q-89 84 -206 84zM508 1140q77 0 142 -20l187 338l108 -59l-186 -331q34 -23 77 -66q74 -88 96 -178q14 -48 14 -121t-33 -150t-91 -135q-128 -124 -302 -124t-302 124
q-124 124 -124 301t124 298q59 57 136 90t154 33z" />
    <glyph glyph-name="uni260D" unicode="&#x260d;" horiz-adv-x="1338" 
d="M774 1002q0 -109 104 -158q34 -13 67 -13t66 14q62 26 93 90q13 34 13 67t-14 66q-29 69 -91 92q-29 14 -67 14t-67 -12t-54 -39q-50 -52 -50 -121zM222 452q0 -109 104 -158q34 -13 67 -13t66 14q62 26 93 90q13 34 13 67t-14 66q-29 69 -91 92q-29 14 -67 14t-67 -12
t-54 -39q-50 -52 -50 -121zM646 989q0 77 24 131q51 113 162 159q55 23 113 23q119 0 209 -86q90 -90 90 -214q0 -122 -90 -212q-90 -86 -196 -86q-105 0 -176 49l-139 -139q49 -75 49 -149q0 -135 -90 -225q-90 -86 -211 -86t-207 86q-90 90 -90 214q0 62 24 116
q51 113 162 159q55 23 131 23t149 -53l137 137q-51 76 -51 153z" />
    <glyph glyph-name="uni260E" unicode="&#x260e;" 
d="M1951 1030q0 -47 -31 -74q-29 -31 -72 -31h-372q-87 200 -305 271q-69 21 -145 21q-76 1 -144 -21q-137 -43 -230 -153q-46 -53 -76 -118h-369q-46 0 -73 31q-31 27 -31 74v32q0 225 248 353q248 127 676 127t679 -130q245 -131 245 -350v-32zM701 720q0 66 25 127
q54 119 173 173q61 25 126 25q65 -1 127 -27q124 -53 175 -171q26 -61 26 -127q0 -134 -96 -229q-95 -95 -232 -95q-70 0 -127 25q-116 51 -172 173q-25 60 -25 126zM170 174l2 5h-2q0 241 108 381q80 111 254 190l-3 -29q1 -103 41 -195t106 -156q64 -66 156 -106t194 -40
t194 40t156 106q66 64 106 156t41 195q0 9 -1 14q0 5 -2 15q166 -74 252 -186q106 -139 108 -375q2 -6 2 -15v-137q0 -53 -38 -93q-37 -40 -95 -40h-1441q-25 0 -52 11q-53 21 -75 70q-11 25 -11 52v137z" />
    <glyph glyph-name="uni260F" unicode="&#x260f;" 
d="M1022 1163q-54 0 -108 7v-102h221v102q-59 -7 -113 -7zM1024 799q-48 -1 -96 -21t-79 -52q-70 -72 -70 -176t69 -177q69 -74 176 -74q106 0 174 72q72 72 72 179t-72 176q-30 32 -78 52t-96 21zM1024 884q70 0 132 -26q131 -56 180 -180q27 -60 27 -128q0 -140 -97 -238
q-100 -98 -242 -98q-72 0 -134 26q-125 53 -180 178q-26 64 -26 132t26 128q54 124 182 180q63 26 132 26zM1562 1178q-34 -46 -34 -114q0 -12 16 -28q31 -31 110 -53q80 -21 126 -21q47 0 75 25t41 101q4 44 4 70q0 58 -38 84t-120 54t-194 49t-244 32t-281 11t-280 -11
q-261 -22 -416 -73t-173 -100q-6 -20 -6 -73t16 -93q30 -76 75 -76q73 0 137 16q144 38 144 95q0 32 -12 63t-21 42l6 22q117 52 254 52l277 -17l277 17q137 0 254 -52zM253 137q0 -57 77 -57h1387q77 0 77 57t-73 70v206q0 178 -135 281q-37 30 -83 62t-80 60
q-129 106 -129 287v84h-4q-38 0 -82 -7v-186h-367v186q-44 7 -83 7h-4v-84q0 -186 -136 -291q-22 -18 -66 -50t-86 -64q-84 -65 -122 -162q-18 -52 -18 -123v-206q-73 -13 -73 -70zM593 1077q0 -73 -71 -120q-115 -69 -283 -69q-42 0 -77 22q-62 49 -82 140q-9 46 -9 104
q0 106 63 140q99 72 324 114q235 50 566 50q476 0 758 -100q84 -30 112 -50t44 -34q39 -38 39 -108q0 -189 -91 -256q-32 -22 -68 -22q-120 0 -220 36q-88 29 -122 80q-20 26 -20 72t19 82q-38 13 -106 24v-85q0 -146 133 -243q33 -24 112 -81t118 -110q77 -107 77 -251
v-156q8 -3 27 -14q50 -44 50 -100q0 -26 -10 -56q-41 -86 -155 -86h-1395q-80 0 -122 42q-41 41 -41 90t25 86q29 31 52 38v156q0 141 68 239q49 68 151 139q54 40 87 64q79 57 113 138q19 42 19 105v85q-77 -13 -105 -24q20 -36 20 -81z" />
    <glyph glyph-name="uni2610" unicode="&#x2610;" horiz-adv-x="1764" 
d="M1475 124v1186h-1186v-1186h1186zM165 1434h1434v-1434h-1434v1434z" />
    <glyph glyph-name="uni2611" unicode="&#x2611;" horiz-adv-x="1764" 
d="M1475 124v1186h-1186v-1186h1186zM165 1434h1434v-1434h-1434v1434zM695 226l-324 474h252l144 -228l381 743h228l-506 -989h-175z" />
    <glyph glyph-name="uni2612" unicode="&#x2612;" horiz-adv-x="1764" 
d="M976 717l428 -428l-94 -94l-428 428l-428 -428l-94 94l428 428l-428 429l94 94l428 -429l428 429l94 -94zM1475 124v1186h-1186v-1186h1186zM165 1434h1434v-1434h-1434v1434z" />
    <glyph glyph-name="uni2613" unicode="&#x2613;" horiz-adv-x="1462" 
d="M373 1434l358 -598l358 598h143l-429 -718l429 -716h-144l-357 596l-357 -596h-144l429 716l-429 718h143z" />
    <glyph glyph-name="uni2614" unicode="&#x2614;" horiz-adv-x="1574" 
d="M628 73q108 0 108 215v488q16 16 58 16t59 -16v-488q0 -228 -124 -302q-45 -26 -89 -27q-76 0 -76 54q0 30 19 45t45 15zM799 1349q125 -1 235 -47t192 -126t131 -188q49 -110 49 -234h-23q-14 51 -64 94q-49 43 -97 43q-120 0 -190 -85q-22 -23 -37 -52h-19
q-17 55 -68 96q-45 41 -109 41t-109 -41q-51 -41 -68 -96h-19q-15 28 -36 52q-76 85 -180 85q-58 0 -95 -32q-62 -53 -77 -105h-23q0 124 49 234t131 188q82 80 192 126t235 47zM509 1952q94 -114 94 -151q1 -36 -19 -58q-36 -41 -73 -41q-36 0 -57 34q-24 29 -24 68t79 148
zM1147 1809q0 -43 -23 -75t-51 -32q-27 0 -53 14t-35 42q-10 28 -10 43q0 43 94 151q78 -121 78 -143zM795 1760q78 -126 78 -166t-23 -58q-22 -26 -50 -26q-68 0 -92 51q-7 13 -7 30q-1 17 13 46q28 58 81 123zM1339 1588q78 -120 78 -157t-23 -56q-6 -7 -24 -19
q-18 -7 -34 -7t-40 13t-30 31q-5 18 -5 41q0 40 78 154zM262 1356q-16 -7 -28 -7t-30 7q-48 32 -48 74t79 158q78 -120 78 -159t-51 -73z" />
    <glyph glyph-name="uni2615" unicode="&#x2615;" horiz-adv-x="1700" 
d="M1599 482q0 -130 -74 -246q-60 -89 -167 -155q-106 -66 -235 -97l62 162q221 70 278 245q13 40 13 90t-10 88q-26 104 -84 153q-58 48 -117 65v160q130 -45 229 -153q105 -124 105 -312zM540 1357q0 33 -24 69q-9 10 -16 15t-7 14q0 28 28 28q28 -1 56 -29
q56 -57 56 -104t-26 -93q-26 -47 -26 -84t21 -63l16 -14q6 -7 6 -19q0 -26 -28 -26q-28 -1 -55 23q-54 47 -54 92q1 45 27 101q26 57 26 90zM910 1083q0 -35 -38 -35t-89 54q-24 22 -43 59t-19 75q0 85 60 172q62 101 62 151q-1 71 -25 109q-24 39 -32 48t-9 20q0 39 36 39
q15 -1 41 -19q54 -38 96 -119q19 -43 19 -94t-60 -150q-9 -15 -35 -60t-25 -85q0 -40 10 -66q11 -26 19 -39t20 -29t12 -31zM1189 694q0 -126 -10 -230q-22 -228 -127 -448q-56 -113 -142 -208h-448q-274 269 -274 869q0 152 15 270h965q21 -126 21 -253z" />
    <glyph glyph-name="uni2616" unicode="&#x2616;" horiz-adv-x="1545" 
d="M1222 1022l-450 292l-450 -292l-45 -882h990zM1357 1091l64 -1091h-1297l64 1091l560 367h49z" />
    <glyph glyph-name="uni2617" unicode="&#x2617;" horiz-adv-x="1545" 
d="M1357 1091l64 -1091h-1297l64 1091l560 367h49z" />
    <glyph glyph-name="uni2618" unicode="&#x2618;" horiz-adv-x="1639" 
d="M1452 730q93 -52 93 -153q-1 -105 -93 -143q-34 -14 -82 -15q-48 0 -104 22q-55 22 -122 81q-68 58 -108 88q-89 67 -193 100q28 -136 28 -231q0 -325 -158 -458q-55 -46 -124 -46t-138 25v75q71 -1 135 33q134 70 190 262q28 96 28 188t-6 153q-128 -39 -256 -149
q-118 -100 -171 -121q-53 -22 -101 -22t-84 13q-92 45 -92 145q0 74 58 128q27 21 35 25v5q-93 55 -93 155q0 101 94 144q34 13 80 13q102 0 220 -100q117 -100 182 -136q65 -37 128 -57q-22 70 -46 112t-62 92t-68 85q-32 36 -56 71t-42 80t-18 93q0 47 13 79t36 53
q43 39 113 39t124 -58q21 -27 25 -35h5q53 93 154 93q109 0 144 -94q14 -29 14 -76q0 -46 -18 -90t-42 -79t-52 -68t-72 -89q-81 -114 -109 -208q111 35 207 110q35 24 75 58t84 65q44 30 80 45q37 15 83 15t82 -13q63 -31 84 -86q9 -30 9 -59q0 -99 -93 -154v-5z" />
    <glyph glyph-name="uni2619" unicode="&#x2619;" horiz-adv-x="1850" 
d="M1384 426q0 -46 26 -76q26 -32 72 -32t70 32t32 65q10 32 10 89q0 117 -93 191q-87 -116 -102 -169q-15 -54 -15 -100zM249 791q1 -97 101 -97q79 0 138 130l36 75q54 101 96 141q74 64 176 64q165 0 215 -132q15 -40 15 -74q0 -60 -14 -96q150 71 308 71q80 0 154 -22
q33 70 33 128q0 92 -44 128t-92 36t-75 -7l-20 103q67 25 127 25q179 0 233 -126q20 -39 20 -96q0 -109 -77 -238q85 -52 131 -130t46 -168t-22 -148q-62 -166 -234 -166q-107 0 -173 62q-65 64 -65 172q0 52 14 92q21 73 71 142q51 68 62 84q-65 20 -135 20
q-138 0 -278 -70q108 -67 108 -187q0 -147 -116 -225q-106 -67 -264 -67q-157 0 -302 62t-232 170q-96 114 -96 253t99 224q37 29 86 42l34 -92q-32 -11 -48 -35t-16 -48z" />
    <glyph glyph-name="uni261A" unicode="&#x261a;" horiz-adv-x="1741" 
d="M1381 978h172v-704l-172 -7v711zM849 949q83 0 432 -31v-534q-26 -41 -80 -62t-114 -22q-92 -32 -164 -32q-73 0 -112 12q-40 12 -62 20q-23 7 -43 14t-68 18q-10 19 -10 40t12 36t25 20q-31 20 -83 72t-52 80q0 58 60 140h-216q-274 0 -274 135q0 53 45 82
q141 -19 295 -19q155 0 281 -1q45 32 128 32z" />
    <glyph glyph-name="uni261B" unicode="&#x261b;" horiz-adv-x="1741" 
d="M188 978h172v-711l-172 7v704zM912 949q63 0 108 -32q126 1 279 1t297 19q45 -29 45 -82q0 -135 -274 -135h-216q60 -82 60 -140q0 -33 -107 -131q-12 -11 -28 -21q37 -13 37 -56q0 -21 -10 -40q-69 -16 -120 -33q-51 -19 -87 -25t-80 -6q-72 0 -162 32q-60 1 -114 22
t-80 62v534q389 31 452 31z" />
    <glyph glyph-name="uni261C" unicode="&#x261c;" horiz-adv-x="1741" 
d="M678 382q0 -46 76 -46t114 26q43 24 43 52q0 29 -12 36q-62 -62 -166 -62q-30 0 -53 7q-2 -10 -2 -13zM741 645q-64 0 -88 50q-41 -27 -41 -64q0 -48 101 -48q102 0 140 45q13 12 13 29t-12 27q-49 -39 -113 -39zM713 519q-37 0 -70 10q-8 -10 -8 -25q0 -55 95 -55
q43 0 102 25q51 30 51 54q0 25 -10 35q-69 -44 -160 -44zM159 835q0 -73 160 -73l103 6l229 2q34 38 64 87q-187 -1 -313 1q-125 2 -227 17q-16 -22 -16 -40zM1303 603q0 -117 -15 -231h104q15 110 15 242t-15 264h-104q15 -158 15 -275zM952 366q15 -5 83 -5t141 61
q74 61 74 154q0 19 -3 37l3 24q1 9 1 45t-25 88q-54 100 -166 144q-58 20 -113 20t-91 -19t-60 -44t-46 -60q-23 -35 -54 -75q8 -32 40 -32q58 0 96 42q35 31 54 87l44 -14q-7 -36 -28 -75q26 -52 80 -86t112 -34t102 9v-46q-42 -10 -86 -10q-107 0 -190 71q0 -29 -8 -42
q25 -31 25 -59t-5 -46q36 -36 36 -73t-16 -62zM328 699q-228 0 -228 137q0 56 45 101q148 -19 314 -19t302 -1q86 80 178 80q91 0 177 -41q80 -44 128 -104l8 82h121q1 21 8 44h172v-704l-172 -7q-6 21 -8 49h-121q-8 50 -8 90q-35 -41 -94 -72t-125 -31t-112 16
q-64 -45 -132 -45q-69 0 -103 20q-60 36 -60 91q0 17 8 35q-49 34 -49 85q0 24 14 49q-35 35 -35 79t40 78q-25 -3 -83 -5h-92q-52 -7 -93 -7z" />
    <glyph glyph-name="uni261D" unicode="&#x261d;" horiz-adv-x="1024" 
d="M257 875q-46 0 -46 -90q0 -54 20 -88q32 -55 60 -55q27 0 34 12q-31 31 -45 75q-17 44 -17 83t7 61q-10 2 -13 2zM520 795q0 82 50 105q-27 41 -64 41q-48 0 -48 -101q0 -94 29 -123q29 -30 45 -30t27 12q-39 49 -39 96zM394 840q0 38 10 70q-12 8 -25 8q-55 0 -55 -95
q0 -54 26 -101q22 -52 60 -52q18 0 28 10q-44 69 -44 160zM732 1006q5 289 18 372q-21 16 -40 16q-73 0 -73 -160l6 -103l2 -229q33 -32 87 -64v168zM510 250q-71 0 -153 4l-110 11v-104q111 -15 243 -15t263 15v104q-172 -15 -243 -15zM303 585q-37 0 -62 16q-3 -9 -5 -27
v-28q0 -95 61 -169t154 -74q19 0 37 3l24 -3q8 -1 46 -1t88 25t86 69q76 91 76 213t-130 199q-61 44 -67 49q-32 -8 -32 -51t41 -86q16 -14 42 -32q28 -15 46 -21l-14 -44q-37 7 -75 28q-53 -25 -87 -80t-33 -111q0 -56 9 -103h-46q-10 42 -10 86q0 106 71 190l-22 1
q-14 4 -20 7q-31 -25 -59 -25t-46 5q-36 -36 -73 -36zM586 957q-5 39 -5 175q-7 52 -7 100q0 221 137 221q58 0 103 -45q-16 -108 -20 -424v-196q78 -72 78 -180q0 -183 -145 -299l82 -8v-121q21 -1 44 -8v-172h-704l-7 172q21 6 49 8v121q23 3 49 5t41 3q-103 88 -103 226
q0 59 16 105q-45 64 -45 134t19 102q35 59 92 59q17 0 35 -8q34 49 85 49q24 0 49 -14q35 35 79 35t78 -40z" />
    <glyph glyph-name="uni261E" unicode="&#x261e;" horiz-adv-x="1741" 
d="M873 362q43 -26 100 -26q90 0 90 46q0 3 -2 13q-23 -7 -53 -7q-104 0 -166 62q-12 -6 -12 -34t43 -54zM1001 645q-65 0 -114 39q-12 -10 -12 -27t19 -37t64 -29q44 -8 70 -8q101 0 101 48q0 37 -41 64q-22 -50 -87 -50zM1028 519q-91 0 -160 44q-10 -10 -10 -28t21 -40
t63 -34t69 -12q95 0 95 55q0 13 -8 25q-33 -10 -70 -10zM1582 835q0 19 -16 40q-99 -15 -184 -16q-170 -2 -356 -2q38 -59 64 -87l229 -2l103 -6q160 0 160 73zM438 635q0 71 15 243h-104q-15 -132 -15 -264t15 -242h104l-11 110q-4 82 -4 153zM648 624q57 0 111 34t80 86
q-18 34 -28 75l44 14q6 -18 31 -59t64 -58q21 -12 54 -12t41 32q-17 22 -43 62q-55 83 -104 110q-49 26 -105 26q-120 0 -209 -78q-44 -36 -69 -85t-25 -87t1 -47l3 -24q-3 -18 -3 -52q1 -34 21 -73q39 -75 132 -112q45 -15 77 -15q53 0 68 5q-16 25 -16 62t36 73
q-5 18 -5 46t25 59q-8 16 -8 42q-84 -71 -190 -71q-43 0 -86 10v46q46 -9 103 -9zM497 406l-8 -90h-121q-2 -28 -8 -49l-172 7v704h172q7 -23 8 -44h121q0 -13 4 -41t4 -41q48 60 127 104q90 41 180 41t176 -80q136 1 313 1t303 19q45 -45 45 -94q1 -49 -19 -75
q-38 -51 -103 -60q-64 -9 -105 -9t-94 7h-92q-58 2 -83 5q40 -34 40 -78t-35 -79q14 -24 14 -49q0 -51 -49 -85q8 -18 8 -41q0 -50 -45 -78q-45 -27 -116 -27q-70 0 -134 45q-46 -16 -113 -16t-124 30t-94 73z" />
    <glyph glyph-name="uni261F" unicode="&#x261f;" horiz-adv-x="1024" 
d="M325 780q-7 12 -33 12q-27 0 -54 -43t-27 -100q0 -90 46 -90q3 0 13 2q-7 23 -7 61q0 39 17 83q14 44 45 75zM570 534q-50 23 -50 105q0 47 39 96q-11 12 -27 12t-38 -22q-36 -36 -36 -134t48 -98q37 0 64 41zM394 594q0 91 44 160q-10 10 -28 10q-36 0 -61 -51t-25 -102
q0 -95 55 -95q13 0 25 8q-10 32 -10 70zM750 56q-13 83 -18 372v168q-49 -30 -87 -64l-2 -229l-6 -103q0 -160 73 -160q19 0 40 16zM510 1184q71 0 243 -15v104q-131 15 -263 15t-243 -15v-104l110 11q82 4 153 4zM452 991q0 44 10 86h46q-9 -43 -9 -101q-1 -58 33 -113
t87 -80q38 21 75 28l14 -44q-18 -6 -46 -21q-26 -18 -54 -46t-29 -71q0 -44 32 -52q6 5 67 49q130 77 130 200t-77 212q-36 44 -85 69q-50 25 -88 25t-46 -1l-24 -3q-18 3 -52 3t-74 -21q-40 -20 -66 -54q-60 -72 -60 -168v-28q2 -18 5 -27q25 16 62 16t73 -36q18 5 46 5
t59 -25q16 8 42 8q-71 84 -71 190zM853 1434v-172q-23 -7 -44 -8v-121q-13 0 -41 -4t-41 -4q145 -116 145 -299q0 -108 -78 -180v-196q4 -316 20 -424q-45 -45 -103 -45q-137 0 -137 221q0 48 7 100q0 136 5 175q-34 -40 -78 -40t-79 35q-24 -14 -49 -14q-51 0 -85 49
q-18 -8 -41 -8q-52 0 -80 51q-25 40 -25 110t45 134q-16 46 -16 113q0 66 30 124t73 94q-70 5 -90 8v121q-28 2 -49 8l7 172h704z" />
    <glyph glyph-name="uni2620" unicode="&#x2620;" 
d="M1124 337q0 37 -11 81h22q12 -34 12 -77t-10 -76l-24 -8q11 43 11 80zM889 418q-10 -52 -10 -80q0 -29 10 -81l-24 8q-9 44 -9 80q0 37 12 73h21zM1034 177l-26 -92h-13l-26 92h65zM950 247l-23 5q-11 44 -11 83t11 83h21q-7 -44 -7 -85t9 -86zM1062 338q0 37 -7 80h21
q10 -42 10 -85q0 -44 -10 -81l-23 -5q9 54 9 91zM988 418h26v-174h-26v174zM1042 494q-15 45 -38 91h-5q-32 -66 -38 -91l-46 11q9 69 39 136t42 109h11q14 -48 35 -95q36 -82 45 -150zM1250 1224q-24 53 -87 99l2 6q148 -54 195 -215q13 -48 13 -96q0 -98 -24 -168
q-30 30 -97 52q22 97 22 183t-24 139zM1217 637q-117 0 -179 166v11q18 1 30 5t34 10q22 7 44 13q23 7 63 6q67 0 121 -54q13 -20 13 -46q-1 -26 -29 -56q-54 -56 -97 -55zM785 637q-44 0 -85 43t-41 69q0 25 13 45q54 54 100 54t62 -2t32 -7q14 -5 29 -9t33 -10t36 -6v-11
q-62 -166 -179 -166zM373 1167q45 40 45 84q0 45 -19 65t-34 26t-34 7q-37 1 -58 -27t-21 -72t23 -87q-50 -2 -84 -20q-63 -31 -63 -76q0 -43 22 -67t63 -24q40 0 67 36q25 27 34 72h22l179 -103v26q0 29 3 56l-145 85v19zM214 479q-54 0 -84 -53q-7 -19 -7 -39
q0 -58 95 -91q35 -8 48 -10q-20 -36 -20 -69q0 -81 46 -101q16 -8 41 -8t52 24t27 65q0 40 -53 89l7 23l220 126q0 2 2 10q-35 15 -59 38l-197 -113l-23 2q-17 70 -57 98q-18 9 -38 9zM1488 1022v-41q0 -6 -2 -28l226 131h23q9 -45 37 -77q28 -31 66 -31t60 24t23 56
q0 32 -14 51q-38 51 -133 56q24 47 24 77q0 76 -46 100q-16 9 -36 9q-36 0 -60 -25q-25 -30 -25 -73q0 -44 45 -84v-19l-189 -110q1 -5 1 -16zM1690 115q16 -7 41 -7t53 28q20 30 20 72t-20 78q10 1 57 15t66 40t19 48t-6 36q-25 54 -82 54q-73 0 -98 -107l-24 -2l-227 131
q-15 -22 -56 -48l251 -144l5 -23q-53 -50 -53 -98t54 -73zM641 394q-1 -24 15 -50t38 -41q22 -16 43 -38l32 -32q11 -9 17 -15l24 -24q18 -17 42 -43q16 -58 28 -75q42 -48 122 -22q28 -9 54 -9t49 12t31 40q8 29 15 54q30 33 51 52q20 21 26 27t20 18l25 25t34 28
q20 15 39 44q16 29 16 53t-5 43q-39 2 -74 28q-3 -13 -5 -37v-46q-42 -67 -101 -105q4 26 4 68t-30 140q9 15 32 33t48 18t55 -22q54 -40 80 -40q52 0 78 52q7 14 7 34q-1 29 -37 96t-36 95q47 139 47 239q0 285 -245 368q-80 26 -178 26q-193 0 -312 -102
q-112 -106 -112 -278q0 -114 47 -253q-1 -29 -37 -97q-36 -67 -36 -100t26 -54q21 -26 54 -26t63 22q29 22 44 31t36 9t45 -16q23 -20 32 -35q-29 -83 -29 -126q0 -58 3 -82q-59 38 -101 105q0 73 -5 94q-48 -38 -74 -39q-5 -23 -5 -47zM1975 403q0 -129 -132 -152
q4 -9 9 -31l1 -32q0 -85 -79 -123q-24 -11 -51 -11q-58 0 -99 43q-42 43 -42 89q0 47 38 90l-203 118q-6 -71 -77 -120q-89 -84 -136 -140q-15 -64 -45 -100q-31 -34 -76 -34t-81 9q-33 -9 -80 -9t-78 34q-30 36 -45 100q-41 50 -65 72t-71 68q-61 42 -75 96l-159 -94
q39 -40 39 -88t-44 -92q-42 -42 -97 -42t-93 39t-38 87t10 71q-132 23 -132 141q0 55 41 96t93 41t86 -30t42 -77l167 97q-10 19 -10 45q-1 33 35 100t36 91q-22 75 -28 93t-13 60l-184 106q-13 -40 -47 -66t-86 -26q-51 0 -92 39q-40 39 -40 95q0 57 45 95q39 33 96 43
q-15 36 -15 82t38 84q34 38 89 38t86 -27q57 -50 57 -108q0 -59 -48 -91l105 -62q17 73 61 135q90 119 248 165q82 24 168 24t170 -23t145 -65t105 -110q44 -67 58 -149l145 85q-47 30 -47 92t44 96q38 38 80 38q100 0 135 -80q10 -24 10 -56t-15 -68q141 -26 141 -139
q0 -87 -85 -123q-26 -10 -62 -10t-70 26q-35 26 -48 66l-236 -136q-9 -40 -20 -76q-12 -37 -15 -47q-1 -25 35 -88t36 -88t-3 -39l205 -118q11 48 44 78q32 30 70 29q69 0 109 -42t40 -84z" />
    <glyph glyph-name="uni2621" unicode="&#x2621;" horiz-adv-x="1489" 
d="M428 163q0 -38 48 -38h848v-124h-848q-86 0 -133 40q-47 39 -47 97t18 92q16 34 50 81l679 912q18 24 18 49q0 38 -48 38h-848v124h848q87 0 133 -40t47 -96q0 -58 -18 -94t-50 -80l-679 -912q-18 -24 -18 -49z" />
    <glyph glyph-name="uni2622" unicode="&#x2622;" horiz-adv-x="1670" 
d="M1060 717q0 64 -32 115t-79 80l184 322q212 -135 277 -364q21 -71 23 -153h-373zM610 717h-373q3 234 178 419q54 56 122 98l184 -322q-47 -29 -79 -80t-32 -115zM835 493q56 0 112 30l186 -323q-132 -77 -298 -77t-298 77l186 323q56 -30 112 -30zM664 718q0 36 12 64
t38 54q24 26 54 39t68 13q66 0 120 -50q50 -54 50 -106t-13 -82t-39 -54t-54 -38q-28 -12 -64 -12t-68 14q-63 24 -91 90q-13 32 -13 68zM194 694q0 -112 50 -230q50 -117 140 -207q189 -191 460 -191t454 190q84 88 131 208t47 253t-47 253t-131 208q-184 190 -463 190
q-175 0 -322 -88q-319 -196 -319 -586zM94 717q0 308 210 524q217 217 531 217t531 -217q210 -216 210 -524t-210 -524q-217 -217 -531 -217t-531 217q-210 216 -210 524z" />
    <glyph glyph-name="uni2623" unicode="&#x2623;" horiz-adv-x="1843" 
d="M1357 590q-1 -120 -57 -222t-162 -163l-34 49q94 56 142 144q50 85 50 195l-4 68h60q5 -27 5 -71zM483 590l1 36q2 11 4 35h60l-4 -68q0 -107 50 -195t143 -144l-35 -49q-104 61 -162 163q-57 102 -57 222zM666 954q115 74 254 74t255 -74l-31 -52q-98 65 -223 65
q-126 0 -225 -65zM488 1024q0 169 103 288q103 118 257 146v-17q-57 -11 -110 -44q-168 -105 -168 -305q0 -69 24 -131q51 -129 178 -189q64 -29 134 -32v-48q-36 -4 -61 -33t-25 -57t8 -48l-38 -17q-22 42 -54 79q-106 116 -266 116q-150 0 -252 -107t-102 -250
q0 -37 9 -75l-16 -7q-15 57 -15 132t36 155t96 138q130 124 305 123q-43 94 -43 183zM1384 732q-229 0 -331 -195l-38 17q8 20 8 40q-1 20 -7 36t-18 30q-23 26 -61 32v48q69 3 131 32q127 59 179 189q26 66 26 133q0 128 -79 226q-83 99 -199 121v17q155 -28 255 -144
q104 -121 104 -291q0 -90 -42 -182q177 0 304 -125q60 -57 96 -136t37 -156q0 -77 -16 -131l-15 7q6 26 6 38q2 12 2 60t-27 112q-57 135 -187 192q-64 30 -128 30zM1379 27q79 1 153 37t124 104l15 -7q-61 -91 -157 -139t-175 -47q-137 0 -251 67q-47 29 -96 78
q-44 51 -71 104q-86 -172 -279 -232q-58 -17 -138 -17q-80 -1 -176 47t-156 139l14 7q50 -68 124 -104t154 -37q80 0 142 28q134 59 190 191q29 64 29 136l-1 36q0 4 -2 14t-3 16l-3 15q-2 9 -4 15l-6 18t-5 16l41 18q31 -39 79 -39t80 39l41 -18q-15 -36 -19 -63t-5 -31
l-1 -36q0 -68 29 -134q60 -136 192 -192q62 -29 141 -29z" />
    <glyph glyph-name="uni2624" unicode="&#x2624;" horiz-adv-x="981" 
d="M372 1363q0 -49 31 -82l-72 -112h-46l46 94l-88 -91l-45 17l95 91l-131 -78l-34 30l135 77l-167 -53l-17 41l159 43l-181 -12v45l318 15q-3 -12 -3 -25zM608 1363q0 13 -3 25l318 -15v-45l-181 12l159 -43l-17 -41l-167 53l135 -77l-34 -30l-131 78l95 -91l-45 -17
l-88 91l46 -94h-46l-72 112q31 33 31 82zM348 1078q-14 0 -23 -13q10 -13 25 -13t25 13q-13 13 -27 13zM647 1052q15 0 25 13q-10 13 -25 13t-25 -13q10 -13 25 -13zM326 233q0 -19 33 -33t85 -18v105l-10 1q-54 -4 -82 -20q-26 -17 -26 -35zM657 234q0 43 -110 55l-11 -1
v-106q50 4 86 18t35 34zM306 422q0 -18 38 -33t100 -19v104h-14q-4 2 -13 2q-111 -15 -111 -54zM536 474v-104q60 4 100 19t40 33q0 39 -112 54l-14 -2h-14zM287 609q1 -19 47 -33t110 -19v101l-24 2q-8 0 -22 2q-111 -14 -111 -53zM583 663l-24 -3q-15 0 -23 -2v-101
q160 11 160 51q0 41 -113 55zM266 794q0 -29 106 -46q43 -6 72 -7v99l-33 2q-11 1 -31 3q-114 -14 -114 -51zM716 794q0 37 -115 51l-33 -3q-10 -2 -32 -2v-99q131 6 166 34q14 8 14 19zM395 1363q-1 39 27 67t68 28t68 -28t28 -67t-28 -67t-68 -28t-68 28t-27 67zM583 971
q0 43 63 43v10h-68q-3 6 -3 16q0 36 52 57q15 6 40 6t54 -34q108 -33 108 -103q0 -59 -96 -94q77 -30 77 -89t-94 -93q74 -35 74 -92t-92 -94q73 -33 73 -92q0 -60 -89 -96q68 -36 68 -93q0 -71 -99 -103q39 -37 70 -120l-67 -25q-17 53 -42 82t-76 40v-122q0 -24 -14 -35
t-32 -11t-32 11t-14 35v122q-53 -11 -78 -44q-23 -25 -40 -78l-67 25q25 77 70 120q-99 32 -99 103q0 58 69 93q-89 34 -89 96q0 61 71 92q-91 37 -91 94t74 92q-94 33 -94 94q0 54 76 88q-95 36 -95 94q0 38 33 66q36 28 97 44q7 8 25 20q17 7 33 7q45 0 76 -41
q7 -12 7 -22t-3 -16h-68v-10q47 0 61 -28q2 -12 2 -15h-9q-4 27 -54 27t-67 10q-37 -15 -37 -32q0 -10 13 -18q50 -31 184 -35v333q16 -9 46 -9t46 9v-334q135 4 185 35q15 9 15 19q0 16 -31 29q-18 -7 -63 -7q-46 0 -50 -27h-9z" />
    <glyph glyph-name="uni2625" unicode="&#x2625;" horiz-adv-x="1044" 
d="M692 852q70 105 70 224t-73 192q-68 62 -167 62q-101 0 -170 -67q-70 -67 -70 -186q0 -120 70 -225q59 -80 167 -151h6q108 71 167 151zM902 1078q0 -219 -168 -359v-4h230v-134h-374v-581h-133v581h-377v134h230v4q-168 140 -168 359q0 89 32 160q65 144 206 194
q66 26 142 26t143 -25q140 -52 205 -193q32 -73 32 -162z" />
    <glyph glyph-name="uni2626" unicode="&#x2626;" horiz-adv-x="1249" 
d="M558 881h-390v133h390v137h-220v133h220v150h133v-150h220v-133h-220v-137h390v-133h-390v-387l180 -129v-156l-180 129v-338h-133v433l-180 129v156l180 -129v292z" />
    <glyph glyph-name="uni2627" unicode="&#x2627;" horiz-adv-x="1239" 
d="M528 1282v-436h116q173 0 256 56q81 56 81 169t-75 162t-241 49h-137zM528 695v-254l154 152h164l-303 -285v-6l337 -302h-171l-181 166v-166h-161v166l-179 -166h-161l326 300v5l-323 288h185l152 -140v982h327q230 0 346 -93t117 -262q-1 -94 -37 -165
q-72 -141 -264 -195q-98 -25 -209 -25h-119z" />
    <glyph glyph-name="uni2628" unicode="&#x2628;" horiz-adv-x="1249" 
d="M691 1151v-137h390v-133h-390v-881h-133v881h-390v133h390v137h-220v133h220v150h133v-150h220v-133h-220z" />
    <glyph glyph-name="uni2629" unicode="&#x2629;" horiz-adv-x="1750" 
d="M158 500v433h133v-150h518v518h-150v133h433v-133h-150v-518h517v150h133v-433h-133v150h-517v-517h150v-133h-433v133h150v517h-518v-150h-133z" />
    <glyph glyph-name="uni262A" unicode="&#x262a;" horiz-adv-x="1764" 
d="M1019 1106l87 -271h279l-225 -162l86 -270l-230 167l-228 -167l89 270l-228 162h281zM398 716q0 -129 48 -241t132 -195q83 -83 196 -132q112 -49 218 -49q280 0 453 173q58 56 97 120v-15q-93 -183 -271 -292q-177 -110 -390 -110q-200 1 -373 101q-257 150 -342 443
q-26 96 -26 197q0 102 27 198q81 290 339 442q172 102 378 102q207 0 387 -112q88 -55 157 -128q68 -75 114 -165v-14q-83 136 -222 216q-139 79 -285 79q-147 0 -261 -50t-196 -132q-82 -84 -132 -196q-48 -112 -48 -240z" />
    <glyph glyph-name="uni262B" unicode="&#x262b;" horiz-adv-x="1545" 
d="M628 1367q-27 0 -62 11v55q31 -10 54 -10q73 0 147 68h12q74 -68 146 -68q23 0 54 10v-55q-31 -11 -62 -11q-77 0 -145 52q-63 -52 -144 -52zM1314 776q0 338 -212 573h21q157 -102 243 -255q85 -153 85 -324q0 -273 -192 -478q-63 -69 -146 -122l-14 10q215 258 215 596
zM443 1349q-212 -236 -212 -574t215 -595l-14 -10q-83 53 -145 120q-129 140 -171 310q-22 84 -22 169q0 178 84 327t244 253h21zM395 811q0 249 137 495h22q-47 -224 -47 -392q-1 -168 51 -333t159 -298l-47 1017l102 50l103 -50l-46 -1017q209 264 209 663q0 133 -47 360
h22q137 -249 137 -495q0 -194 -78 -369q-82 -179 -224 -289q135 -100 295 -148l-9 -5q-167 6 -314 78l-4 -74l-44 -32l-42 32l-4 74q-147 -72 -315 -78l-9 5q162 49 296 148q-146 113 -225 288q-78 175 -78 370z" />
    <glyph glyph-name="uni262C" unicode="&#x262c;" horiz-adv-x="1546" 
d="M860 952q0 -128 22 -229q74 35 108 93q42 65 42 142q0 76 -42 140t-105 94q-25 -112 -25 -240zM556 1098q-42 -64 -42 -140q0 -77 42 -142q34 -58 108 -93q22 101 22 201q0 156 -25 268q-63 -30 -105 -94zM662 274q-67 -82 -138 -244l-102 63q61 107 164 207q-4 2 -12 2
h-15q-135 0 -242 -113h-7q-156 140 -201 391q-15 80 -15 167q0 295 179 503q61 73 149 129h21q-210 -222 -210 -509q0 -209 129 -350q135 -154 360 -166v121q-55 19 -96 19t-75 -7l-5 7q52 52 88 133q-151 62 -203 224q-16 49 -16 105q-1 56 15 106t46 94q58 87 154 131
q-33 81 -83 137v10q39 0 85 18q103 40 148 39q44 0 102 -29q52 -18 68 -23t49 -5v-10q-50 -56 -83 -137q150 -67 200 -225q16 -50 15 -106q0 -167 -131 -276q-39 -33 -88 -53q36 -81 88 -133l-5 -7q-33 7 -75 7q-41 0 -96 -19v-121q224 12 356 160q133 149 133 356
q0 287 -210 509h21q88 -56 149 -128q179 -211 179 -488t-126 -469q-40 -60 -90 -105h-7q-107 113 -242 113h-15q-8 0 -12 -2q103 -100 164 -207l-102 -63q-68 159 -138 244q-60 -44 -60 -121q0 -38 40 -105q7 -20 7 -38q-1 -18 -9 -31t-22 -21q-29 -17 -68 -17q-40 1 -60 13
t-28 25t-9 31q1 18 7 34q6 14 17 35t17 35t6 46q0 70 -60 114z" />
    <glyph glyph-name="uni262D" unicode="&#x262d;" horiz-adv-x="1556" 
d="M946 1024l-92 -135l195 -141q47 92 47 191q0 185 -128 313q-133 126 -319 126q-138 0 -291 -51l-8 19q177 112 359 112q251 0 413 -158q154 -154 154 -401q0 -135 -68 -262l254 -180l-71 -109l-258 180q-170 -190 -418 -190q-120 0 -234 51l-245 -377l-127 90l321 447
q103 -55 209 -55q203 0 336 147l-199 139l-94 -135l-160 111l170 243q55 76 126 76t128 -51z" />
    <glyph glyph-name="uni262E" unicode="&#x262e;" horiz-adv-x="1764" 
d="M471 254q144 -130 348 -152v509zM943 102q198 22 348 151l-348 358v-509zM264 723q0 -215 124 -380l431 435v553q-119 -12 -221 -65t-174 -133q-72 -81 -116 -189t-44 -221zM1339 1133q-73 80 -175 133t-221 65v-553l431 -435q126 163 126 388q0 226 -161 402zM140 716
q0 102 27 198q81 290 339 442q173 102 375 102q101 0 197 -26q195 -54 328 -192q138 -134 191 -326q27 -98 27 -198t-28 -198t-74 -178q-47 -80 -113 -147q-67 -66 -153 -116t-179 -76t-197 -26q-200 1 -372 101q-257 150 -342 443q-26 96 -26 197z" />
    <glyph glyph-name="uni262F" unicode="&#x262f;" horiz-adv-x="1764" 
d="M1102 702q0 36 8 56q30 72 102 71q50 0 80 -34q33 -33 33 -68t-9 -55q-26 -69 -116 -69q-36 0 -67 32t-31 67zM662 715q0 45 -33 80q-33 34 -81 34q-48 -1 -71 -27t-31 -45t-7 -55q0 -36 31 -67q31 -32 67 -32t57 9q68 31 68 103zM254 716q0 70 26 126q79 172 282 172
q188 0 280 -188q24 -53 40 -112t40 -110q24 -52 64 -92q91 -93 223 -93t213 81q88 82 88 226q0 76 -22 157q-44 162 -158 277q-53 58 -125 101q-147 88 -303 88q-287 0 -470 -189q-86 -86 -132 -202t-46 -242zM140 716q0 205 100 374q92 166 264 266q169 102 377 102
q207 0 381 -102q82 -48 146 -116q68 -64 116 -148q100 -173 100 -376q0 -202 -102 -376q-96 -165 -266 -263q-176 -102 -376 -102q-200 1 -372 101q-257 150 -342 443q-26 96 -26 197z" />
    <glyph glyph-name="uni2630" unicode="&#x2630;" horiz-adv-x="1839" 
d="M188 1434h1463v-172h-1463v172zM188 801h1463v-172h-1463v172zM188 172h1463v-172h-1463v172z" />
    <glyph glyph-name="uni2631" unicode="&#x2631;" horiz-adv-x="1839" 
d="M1055 1262v172h596v-172h-596zM188 1434h596v-172h-596v172zM188 801h1463v-172h-1463v172zM188 172h1463v-172h-1463v172z" />
    <glyph glyph-name="uni2632" unicode="&#x2632;" horiz-adv-x="1839" 
d="M188 801h596v-172h-596v172zM1055 629v172h596v-172h-596zM188 1434h1463v-172h-1463v172zM188 172h1463v-172h-1463v172z" />
    <glyph glyph-name="uni2633" unicode="&#x2633;" horiz-adv-x="1839" 
d="M188 801h596v-172h-596v172zM188 1434h596v-172h-596v172zM1055 629v172h596v-172h-596zM1055 1262v172h596v-172h-596zM188 172h1463v-172h-1463v172z" />
    <glyph glyph-name="uni2634" unicode="&#x2634;" horiz-adv-x="1839" 
d="M1055 0v172h596v-172h-596zM188 172h596v-172h-596v172zM188 1434h1463v-172h-1463v172zM188 801h1463v-172h-1463v172z" />
    <glyph glyph-name="uni2635" unicode="&#x2635;" horiz-adv-x="1839" 
d="M1055 0v172h596v-172h-596zM1055 1262v172h596v-172h-596zM188 1434h596v-172h-596v172zM188 172h596v-172h-596v172zM188 801h1463v-172h-1463v172z" />
    <glyph glyph-name="uni2636" unicode="&#x2636;" horiz-adv-x="1839" 
d="M1055 629v172h596v-172h-596zM188 172h596v-172h-596v172zM1055 0v172h596v-172h-596zM188 801h596v-172h-596v172zM188 1434h1463v-172h-1463v172z" />
    <glyph glyph-name="uni2637" unicode="&#x2637;" horiz-adv-x="1839" 
d="M1055 629v172h596v-172h-596zM1055 0v172h596v-172h-596zM188 1434h596v-172h-596v172zM188 172h596v-172h-596v172zM1055 1262v172h596v-172h-596zM188 801h596v-172h-596v172z" />
    <glyph glyph-name="uni2638" unicode="&#x2638;" horiz-adv-x="1764" 
d="M784 732q0 -42 28 -70t70 -28t70 28q28 30 28 70t-28 70q-30 28 -70 28t-70 -28q-28 -28 -28 -70zM433 543l325 188l-325 187q-34 -87 -34 -187q0 -99 34 -188zM1330 543q35 90 35 187t-35 189l-325 -188zM944 244q207 28 327 191l-327 188v-379zM493 435
q120 -163 327 -191v379zM1271 1027q-122 167 -327 191v-380zM820 1218q-206 -24 -328 -191l328 -189v380zM249 731q0 139 57 261l-85 49q-17 -5 -45 -5t-56 28t-28 70t28 70q30 28 69 28t67 -25t31 -62l82 -47q77 104 193 172t258 82v109q-36 29 -36 74q0 44 28 73
q30 28 70 28t70 -28q28 -30 28 -74t-36 -72v-110q142 -16 230 -67q88 -50 132 -91q46 -38 89 -96l82 48q3 34 31 60t68 26t68 -28t29 -70q0 -42 -28 -70t-60 -28t-42 5l-85 -49q57 -125 57 -263q0 -139 -58 -259l80 -47q17 7 47 7t58 -28t29 -70q0 -42 -28 -70t-68 -28
q-41 0 -67 24t-32 58l-82 47q-76 -104 -192 -171t-258 -81v-101q36 -28 36 -72t-28 -74q-28 -28 -70 -28t-70 28t-28 73t36 73v101q-129 11 -256 79q-117 68 -195 173l-85 -49q-6 -34 -33 -58q-29 -22 -67 -22t-66 28t-28 70t29 70t58 28t47 -7l82 47q-57 122 -57 261z" />
    <glyph glyph-name="uni2639" unicode="&#x2639;" 
d="M1874 754q0 118 -30 228q-63 216 -221 377t-377 221q-109 31 -228 31q-234 0 -432 -117q-94 -55 -173 -135q-158 -160 -221 -377q-30 -110 -30 -228q0 -233 113 -426q113 -194 311 -312q198 -117 432 -117t432 117q95 56 173 134q159 159 221 378q30 108 30 226z
M1018 1705q254 0 480 -130q329 -193 436 -567q34 -120 34 -282t-72 -335t-207 -309q-132 -132 -307 -204q-175 -73 -337 -73q-161 -1 -279 33t-228 96q-106 64 -193 151q-176 176 -243 417q-34 120 -34 252q0 258 127 476t348 346q221 129 475 129zM1329 949q0 68 39 114
q-33 4 -90 27q-57 22 -62 30t-5 20t15 24q14 12 34 12q58 0 119 -14t77 -18q56 -13 110 -43q54 -31 54 -63t-32 -32q-42 0 -62 9q11 -33 11 -66v-48q0 -51 -20 -71q-21 6 -34 12t-25 11t-24 5t-24 -5t-18 -7t-18 -7t-24 -9q-21 21 -21 74v45zM607 858q-12 0 -24 -4t-18 -7
q-5 -3 -21 -9t-23 -8q-21 21 -21 71v48q0 34 14 70q-8 -4 -16 -5l-56 -8q-31 0 -31 27q0 23 27 45q64 54 191 78l24 4q16 4 27 6q37 8 79 8q41 0 59 -22q4 -10 4 -22t-10 -16t-49 -24t-93 -27q40 -40 40 -114l1 -48q0 -50 -21 -71q-19 5 -45 17q-26 11 -38 11zM1468 325
q0 -20 -10 -34q-17 -20 -40 -20t-35 9q-179 130 -367 130q-192 0 -352 -125q-28 -14 -45 -14t-32 15t-15 38t24 39q24 17 49 34q75 54 179 83t196 29q222 0 427 -150q21 -14 21 -34z" />
    <glyph glyph-name="smileface" unicode="&#x263a;" 
d="M1877 754q0 230 -117 431q-177 301 -512 395q-108 30 -227 30q-234 0 -432 -117q-95 -57 -173 -135q-160 -162 -220 -377q-31 -108 -31 -227q0 -234 116 -430q116 -197 311 -312q196 -114 429 -114q119 0 228 30q217 61 377 221q251 254 251 605zM1021 1704
q257 0 475 -127t346 -348q129 -221 129 -475q0 -394 -279 -673q-135 -135 -307 -206t-334 -71q-294 0 -509 130q-104 59 -192 147q-175 175 -245 420q-34 119 -34 253q0 253 130 480q193 329 567 436q121 34 253 34zM495 569q-1 57 65 57q36 0 51 -58t53 -118
q79 -123 217 -171q68 -24 142 -24q149 0 265 91q115 91 150 232q5 20 21 32q17 11 40 11q23 1 38 -17q14 -18 14 -28t-12 -62t-62 -130q-101 -157 -275 -216q-84 -30 -179 -30t-180 30t-157 88q-144 114 -190 300q-1 2 -1 6v7zM709 882q-13 22 -91 22q-18 0 -28 -2
q-47 0 -62 -20q-16 18 -16 60v36q0 58 31 90t75 31q44 1 74 -31t30 -90v-42q0 -38 -13 -54zM1318 943v35q0 58 32 90t74 31q43 1 73 -31t30 -90v-44q0 -38 -13 -52q-15 20 -62 20q-10 2 -28 2q-79 0 -93 -22q-13 17 -13 61z" />
    <glyph glyph-name="invsmileface" unicode="&#x263b;" 
d="M1021 -102q-234 0 -427 113q-194 113 -312 312q-117 198 -117 429q0 232 117 433q55 95 133 173q158 159 379 222q108 30 227 30q234 0 432 -117q95 -57 173 -135q160 -162 220 -377q31 -108 31 -227q0 -351 -251 -605q-157 -159 -378 -221q-108 -30 -227 -30zM1551 576
q0 10 -14 28t-38 17q-23 0 -40 -11q-16 -12 -21 -32q-35 -140 -150 -232q-115 -91 -266 -91q-150 0 -264 90t-151 237q-10 44 -47 44t-51 -18t-14 -39v-7q0 -4 1 -6q46 -186 190 -300q149 -118 337 -118q95 0 179 30q174 58 275 216q50 78 62 130t12 62zM618 904
q78 0 91 -22q13 16 13 54v42q0 58 -30 90t-74 31q-44 1 -75 -31t-31 -90v-36q0 -42 16 -60q15 20 62 20q10 2 28 2zM1331 882q13 22 93 22q18 0 28 -2q47 0 62 -20q13 14 13 52v44q0 58 -30 90t-73 31q-42 1 -74 -31t-32 -90v-35q0 -44 13 -61z" />
    <glyph glyph-name="sun" unicode="&#x263c;" horiz-adv-x="1726" 
d="M1346 732q0 104 -37 193q-76 184 -255 259q-88 38 -190 38q-208 0 -346 -142t-138 -348q0 -104 37 -194q76 -185 254 -259q91 -38 193 -38q205 0 344 142q138 142 138 349zM801 1566h124v-214q190 -18 337 -135l148 148l87 -87l-147 -147q121 -141 143 -338h205v-124
h-205q-21 -191 -143 -338l147 -147l-87 -87l-149 149q-143 -116 -336 -135v-215h-124v215q-192 19 -336 135l-149 -149l-87 87l147 147q-121 141 -143 338h-205v124h205q17 188 142 338l-146 147l87 87l148 -148q147 117 337 135v214z" />
    <glyph glyph-name="uni263D" unicode="&#x263d;" horiz-adv-x="1169" 
d="M811 715q0 -249 -123 -427q-131 -196 -363 -249q109 0 202 28q187 56 297 189q114 128 152 297q20 79 20 163q0 269 -172 462q-115 134 -297 189q-93 28 -202 28q232 -53 359 -242t127 -438zM348 -25q-138 0 -243 27v70q153 0 273 53q233 103 314 347q39 115 39 244
q0 276 -156 452q-77 88 -197 141t-273 53v70q105 27 217 27q325 0 539 -208t214 -564q1 -135 -55 -270t-158 -235q-104 -99 -240 -153t-274 -54z" />
    <glyph glyph-name="uni263E" unicode="&#x263e;" horiz-adv-x="1169" 
d="M173 716q0 -76 20 -162q39 -167 152 -298q113 -132 297 -190q93 -27 202 -27q-231 52 -358 241q-128 188 -128 436t123 430q131 196 363 249q-307 0 -500 -217q-111 -131 -151 -300q-20 -86 -20 -162zM94 692q0 138 24 232t74 178q146 252 448 332q97 25 209 25t215 -27
v-70q-156 0 -274 -53q-233 -104 -313 -347q-39 -118 -39 -246t39 -245q80 -240 313 -347q119 -52 274 -52v-70q-102 -27 -242 -27q-140 1 -277 55q-279 110 -395 386q-56 138 -56 276z" />
    <glyph glyph-name="uni263F" unicode="&#x263f;" horiz-adv-x="1128" 
d="M234 638q0 -74 24 -133t70 -105q94 -96 234 -96t236 97t96 237q0 141 -96 237q-96 97 -236 97q-141 0 -232 -95q-96 -96 -96 -239zM234 1434q0 -142 94 -238t234 -96t236 97t96 237h140q0 -186 -140 -326q-47 -44 -96 -72q49 -28 96 -72q140 -146 140 -326
q0 -171 -117 -303q-116 -130 -285 -154v-182h223v-134h-223v-223h-133v223h-224v134h224v181q-82 12 -158 54q-157 87 -215 239q-32 75 -32 151q0 202 138 340q45 43 95 72q-167 97 -216 276q-17 60 -17 122h140z" />
    <glyph glyph-name="female" unicode="&#x2640;" horiz-adv-x="1128" 
d="M234 996q0 -74 24 -133t70 -105q94 -96 234 -96t236 97t96 237q0 141 -96 237q-96 97 -236 97q-141 0 -232 -95q-96 -96 -96 -239zM855 223h-223v-223h-133v223h-224v134h224v181q-82 12 -158 54q-157 87 -215 239q-32 76 -32 169q0 94 37 176q76 169 251 246
q87 36 181 36q190 0 331 -137q140 -137 140 -325q0 -171 -117 -303q-116 -130 -285 -154v-182h223v-134z" />
    <glyph glyph-name="uni2641" unicode="&#x2641;" horiz-adv-x="1128" 
d="M234 438q0 -74 24 -133t70 -105q94 -96 233 -96t237 95q96 98 96 239t-96 237q-96 97 -236 97q-141 0 -232 -95q-96 -96 -96 -239zM855 1077h-223v-182q82 -13 157 -55q152 -84 213 -238q32 -76 32 -167q0 -183 -140 -323q-143 -136 -331 -136q-95 0 -181 37
q-177 76 -250 246q-38 82 -38 175t32 169q59 155 215 240q72 40 158 52v182h-224v134h224v223h133v-223h223v-134z" />
    <glyph glyph-name="male" unicode="&#x2642;" horiz-adv-x="1421" 
d="M234 438q0 -74 24 -133t70 -105q94 -96 233 -96t237 95q96 98 96 239t-96 237q-96 97 -236 97q-141 0 -232 -95q-96 -96 -96 -239zM931 723q103 -129 103 -300t-140 -311q-143 -136 -331 -136q-95 0 -181 37q-177 76 -250 246q-38 82 -38 179q0 98 37 180q76 169 251 246
q87 36 181 36q145 0 271 -86l295 295l-170 -2l-104 104l460 -8l3 -3l9 -460l-104 104l1 172z" />
    <glyph glyph-name="uni2643" unicode="&#x2643;" horiz-adv-x="1575" 
d="M829 465h394v969h164v-1434h-164v313h-1129v152h399q65 -1 121 23q108 45 156 156q21 54 21 112q0 118 -73 191q-70 77 -191 77t-189 -71t-77 -202h-165q0 171 113 294q123 133 319 133q198 0 320 -122q114 -115 114 -299t-133 -292z" />
    <glyph glyph-name="uni2644" unicode="&#x2644;" horiz-adv-x="1096" 
d="M836 671q0 238 -216 238q-125 0 -204 -101q-80 -95 -80 -228v-580h-164v1202h-133v133h133v181h164v-181h334v-133h-334v-348h4q130 195 336 195q160 0 242 -111t82 -253t-68 -265q-68 -133 -68 -226q0 -94 40 -194h-172q-34 91 -34 197t36 186q14 35 32 69
q70 134 70 219z" />
    <glyph glyph-name="uni2645" unicode="&#x2645;" horiz-adv-x="1454" 
d="M622 360q-41 -43 -41 -94q1 -82 31 -114t56 -44q26 -11 58 -11q67 0 109 44t42 94q1 49 -9 75t-32 50q-46 40 -109 40t-105 -40zM60 1434h315v-436h285v436h133v-436h286v436h315v-142h-162v-739h162v-142h-315v453h-286v-351q35 -7 75 -28q140 -72 140 -234
q0 -119 -78 -199q-75 -77 -201 -77q-63 0 -113 20q-106 42 -145 145q-20 52 -20 111q0 116 65 181q47 56 144 82v350h-285v-453h-315v142h162v739h-162v142z" />
    <glyph glyph-name="uni2646" unicode="&#x2646;" horiz-adv-x="1688" 
d="M290 1050q0 -132 29 -245q61 -237 244 -333q90 -49 219 -54v877l-123 -123v142l184 177h4l185 -176v-143l-125 125v-879q241 10 367 186q122 172 122 446v97l-123 -123v141l184 178h4l185 -178v-141l-125 125v-99q0 -335 -155 -539t-459 -219v-160h270v-133h-270v-174
h-125v174h-271v133h271v160q-308 16 -464 226q-152 193 -152 532v98l-124 -124v141l184 178h4l185 -178v-141l-125 125v-99z" />
    <glyph glyph-name="uni2647" unicode="&#x2647;" horiz-adv-x="1147" 
d="M356 1282v-517h176q175 0 266 70t91 196q0 251 -336 251h-197zM356 614v-462h684v-152h-852v1434h394q231 0 357 -104t126 -297q-1 -101 -43 -181q-84 -159 -278 -212q-98 -26 -199 -26h-189z" />
    <glyph glyph-name="uni2648" unicode="&#x2648;" horiz-adv-x="1982" 
d="M526 1599q301 0 465 -231q119 166 313 216q60 16 132 15q219 0 386 -161q105 -107 140 -242q20 -68 20 -146t-18 -144q-35 -127 -142 -242q-168 -159 -386 -159v204q72 0 136 28t106 73q44 42 72 107t28 135t-28 134t-72 106q-42 45 -106 73t-136 28q-144 -1 -244 -101
t-100 -241v-1051h-202v1051q0 141 -100 241t-242 101q-142 -1 -242 -101t-100 -241q0 -70 28 -134t72 -108t106 -72q63 -28 131 -28v-204q-113 1 -211 43q-202 87 -289 290q-43 98 -43 212t43 214q87 202 292 292q99 43 191 43z" />
    <glyph glyph-name="uni2649" unicode="&#x2649;" horiz-adv-x="1985" 
d="M1306 932q-130 130 -315 131q-184 -1 -314 -131q-129 -130 -129 -314q0 -182 130 -314q129 -132 311 -132t317 130q130 134 130 317t-130 313zM1985 1848v-204q-176 0 -233 -22t-79 -45t-67 -107t-79 -135q-73 -108 -177 -176q66 -43 121 -102q172 -185 172 -439
q0 -263 -191 -460q-196 -190 -460 -190t-460 190q-190 196 -190 460q0 252 172 439q54 59 120 102q-149 97 -238 273q-61 120 -84 144q-66 68 -312 68v204q206 0 291 -30t144 -76q59 -49 97 -125q38 -75 70 -131t83 -106t125 -82t182 -31q194 0 306 111q50 44 87 110t71 136
t93 118q113 87 275 100q80 6 161 6z" />
    <glyph glyph-name="uni264A" unicode="&#x264a;" horiz-adv-x="1759" 
d="M879 207q123 0 240 -8v1073q-80 -2 -119 -4l-122 -1l-120 1q-38 2 -118 4v-1073q116 8 239 8zM878 1471q465 0 829 91l50 -199q-198 -48 -438 -74v-1107q212 -18 440 -74l-49 -199q-366 91 -830 91q-465 0 -831 -91l-49 199q217 55 438 74v1107q-233 25 -438 74l49 199
q364 -91 829 -91z" />
    <glyph glyph-name="uni264B" unicode="&#x264b;" horiz-adv-x="1993" 
d="M1543 760q-49 0 -91 -18q-83 -37 -126 -131q-18 -44 -18 -92q0 -102 74 -167q72 -68 171 -68q98 0 166 69t68 167q0 51 -20 94q-39 88 -129 127q-44 19 -95 19zM440 1168q-50 0 -92 -18q-86 -38 -124 -131q-19 -42 -19 -91q0 -103 74 -168q70 -68 169 -68q98 0 167 69
t69 167q0 51 -20 94q-40 88 -130 127q-44 19 -94 19zM890 929q0 -217 -172 -349q-124 -96 -294 -96q-169 0 -302 139q-122 136 -122 309q0 154 98 275q178 254 574 337q192 38 397 38q206 0 426 -74t407 -220l-126 -162q-314 251 -745 251q-191 0 -386 -50q121 -63 181 -167
q64 -102 64 -231zM1176 762q80 123 224 178q72 25 144 25h6q191 -2 322 -139q55 -58 88 -141t33 -159q0 -159 -96 -281q-118 -170 -355 -271q-271 -106 -615 -106q-205 0 -425 74t-411 222l126 160q317 -251 747 -251q187 0 387 51q-113 58 -183 168q-64 107 -64 235t72 235
z" />
    <glyph glyph-name="uni264C" unicode="&#x264c;" horiz-adv-x="1638" 
d="M376 158q77 0 127 54q23 24 33 55q12 31 12 61t-12 62q-23 66 -83 95q-31 15 -74 15q-79 0 -129 -54q-43 -53 -43 -103q0 -51 11 -79q18 -62 84 -92q32 -14 74 -14zM409 985q0 216 147 369q91 99 226 144q79 27 151 27h19q225 0 390 -169q157 -168 157 -386
q0 -117 -53 -229l-281 -706q-19 -37 -19 -71q0 -66 49 -108t101 -41q115 0 147 104l195 -64q-35 -109 -134 -179q-94 -64 -200 -64q-200 0 -308 171q-51 88 -51 187q0 86 36 156l278 703q35 71 35 139q0 128 -78 228q-105 123 -249 123q-81 -1 -143 -27q-126 -53 -184 -180
q-28 -60 -28 -111t19 -131t27 -114t25 -101q17 -66 25 -103t26 -108t19 -135q0 -63 -34 -133t-86 -118q-51 -48 -123 -75q-72 -28 -143 -28q-156 0 -261 111q-106 111 -106 257q0 150 107 265q107 116 267 116q38 0 88 -10q-53 214 -53 291z" />
    <glyph glyph-name="uni264D" unicode="&#x264d;" horiz-adv-x="1983" 
d="M1721 1136v96q-2 63 -35 91q-34 29 -55 37t-46 7q-25 0 -63 -15t-57 -52q-19 -38 -19 -68v-89q0 -101 16 -255q22 -219 122 -468q137 338 137 716zM1582 1573q139 -1 237 -93q46 -44 76 -106q31 -64 31 -118t2 -70v-48q0 -407 -136 -753q-39 -103 -90 -194
q120 -182 244 -283q8 -6 15 -12t13 -10t6 -5q1 -1 2 -1l1 -1l-113 -170q-94 65 -184 167q-47 48 -104 126q-88 -122 -194 -219q-39 -37 -89 -74l-116 170q82 57 158 148q77 91 123 164q-223 410 -223 958v41q0 27 1 40v2q-6 98 -90 128q-26 8 -64 8t-75 -34
q-44 -34 -46 -102v-1232h-202v1232q0 67 -43 101q-36 34 -77 34q-41 1 -63 -7t-42 -25q-48 -41 -50 -103v-1232h-212v1232q0 86 -84 124q-26 12 -54 12t-51 -13l-89 185q72 34 147 34q138 0 239 -101q100 100 238 100t242 -100q100 100 238 100t239 -100q100 100 239 100z
" />
    <glyph glyph-name="uni264E" unicode="&#x264e;" horiz-adv-x="1853" 
d="M1100 681q202 111 202 347q0 66 -30 134q-61 139 -200 200q-68 30 -146 30t-146 -30q-139 -61 -201 -200q-30 -70 -30 -136q0 -169 121 -286q42 -37 83 -59h5v-204h-758v202h451q-106 153 -106 321q0 169 79 308q119 201 347 267q73 21 154 21q160 0 295 -80
q128 -73 208 -208q78 -137 78 -308t-106 -321h453v-202h-760v204h7zM0 0v204h1853v-204h-1853z" />
    <glyph glyph-name="uni264F" unicode="&#x264f;" horiz-adv-x="1963" 
d="M1344 1477q98 -99 98 -242v-1164q0 -54 42 -94q42 -39 98 -39h133l-101 101l71 71l278 -275l-278 -276l-71 74l101 103h-133q-140 0 -242 98q-100 100 -100 237h2v1164q0 25 -11 51q-22 54 -73 73q-27 11 -68 11t-72 -30q-32 -30 -42 -54q-10 -22 -9 -51v-1235h-202v1235
q0 50 -41 95q-48 40 -86 40q-99 0 -138 -84q-10 -27 -10 -51v-1235h-202v1235q0 27 -12 51q-25 54 -76 73q-25 11 -50 11t-61 -12l-89 184q67 34 148 34q140 0 238 -98q98 98 240 98t240 -98q98 98 239 98t239 -99z" />
    <glyph glyph-name="uni2650" unicode="&#x2650;" horiz-adv-x="1719" 
d="M1674 1591v-888h-202v538l-779 -777l233 -236l-145 -145l-236 236l-372 -372l-145 143l372 374l-234 234l145 145l234 -234l780 780h-539v202h888z" />
    <glyph glyph-name="uni2651" unicode="&#x2651;" horiz-adv-x="2255" 
d="M1879 -2q33 0 67 14q63 25 92 84q13 34 13 66q-1 32 -15 66q-26 59 -90 92q-36 13 -80 13q-84 -1 -142 -67q-64 -73 -125 -162q119 -106 280 -106zM1879 -213q-217 0 -403 150l-163 -214q-107 -140 -273 -140h-150v201h148q68 0 113 62l182 243q-108 169 -108 347v512
q0 58 -39 98t-97 40q-59 0 -115 -67q-72 -77 -132 -231q-26 -64 -26 -70q-1 -7 -28 -68q-68 -155 -68 -652h-209q0 307 -43 516q-13 74 -29 126q-17 52 -19 56t-2 5v1q-79 210 -107 252q-29 42 -43 57t-29 30q-14 15 -37 30t-61 15q-37 0 -60 -10l-81 187q70 32 157 32
t163 -53q50 -33 105 -102q53 -53 115 -190q31 -62 75 -186q50 141 82 205q75 149 158 226q107 100 237 100q141 0 241 -103q101 -103 101 -244v-512q0 -87 34 -162q8 10 27 35t46 57t30 37q131 142 296 142t278 -113q110 -116 110 -268q1 -76 -29 -146q-60 -139 -200 -201
q-69 -30 -147 -30z" />
    <glyph glyph-name="uni2652" unicode="&#x2652;" horiz-adv-x="2244" 
d="M793 789q-66 0 -92 36l-263 318l-280 -335l-158 133l359 425q31 37 67 37q65 0 91 -37l263 -314l263 314q31 35 78 35t80 -35l263 -314l263 314q29 37 78 37t80 -37l359 -425l-158 -133l-280 335l-263 -318q-26 -37 -77 -37t-81 37l-263 315l-263 -315q-30 -36 -66 -36z
M1543 4q-35 -37 -79 -37t-79 37l-263 317l-263 -317q-29 -35 -79 -35t-79 35l-263 317l-280 -332l-158 130l359 428q30 37 66 37q61 0 92 -37l263 -317l263 317q31 35 78 35t80 -35l263 -317l263 317q30 37 79 37t79 -37l359 -428l-158 -130l-280 332z" />
    <glyph glyph-name="uni2653" unicode="&#x2653;" horiz-adv-x="1454" 
d="M1446 909v-202h-305q34 -349 265 -620l-155 -133q-281 318 -314 753h-421q-16 -208 -97 -403t-220 -355l-155 136q234 265 268 622h-305v202h305q-33 357 -268 622l152 136q287 -325 320 -758h421q16 207 97 403t222 355l153 -136q-235 -265 -268 -622h305z" />
    <glyph glyph-name="uni2654" unicode="&#x2654;" 
d="M993 1564h-57v57h57v59h62v-59h57v-57h-57v-103q113 -165 113 -363q45 77 115 124q73 53 152 53q206 0 275 -165q20 -52 20 -114q0 -129 -73 -241q-73 -111 -192 -166q13 0 37 -3l42 -2q14 -2 37 -3q22 -1 44 -3v-536q-294 -42 -585 -42t-617 42v536q22 2 38 2l43 4l42 2
q24 3 37 3q-184 84 -245 279q-20 66 -20 128t20 113q43 106 146 145q49 21 103 21q105 0 178 -53q70 -47 115 -124q0 198 113 363v103zM820 595q81 0 125 14q-9 136 -45 269q-21 66 -48 126q-102 205 -261 205q-139 0 -185 -127q-12 -38 -12 -106t37 -143q75 -151 234 -211
q74 -28 155 -27zM1228 595q81 -1 155 27q159 59 234 211q37 75 37 143q0 172 -112 216q-36 17 -90 17q-154 0 -256 -205q-83 -184 -93 -395q44 -14 125 -14zM1020 412h8q225 0 525 -10v117q-246 14 -530 14t-528 -14v-117q300 10 525 10zM1028 196h-8q-315 0 -525 10v-99
q253 -34 527 -34t531 34v99q-210 -10 -525 -10zM1020 354q-340 0 -525 -7v-87q134 -5 262 -6h534q128 1 262 6v87q-185 7 -525 7h-8zM951 1077q0 -84 32 -244t39 -238h4q8 91 16 131q54 253 55 351q0 180 -73 303q-73 -123 -73 -303z" />
    <glyph glyph-name="uni2655" unicode="&#x2655;" 
d="M395 1079l211 -323l42 453q-76 9 -101 79q-7 20 -7 61t38 75q38 35 88 35q50 -1 78 -25t40 -48t11 -59q0 -35 -23 -67t-61 -45l158 -440l114 504q-33 10 -59 39t-26 83t36 88q36 35 73 35q100 0 131 -71q12 -24 12 -65t-26 -70t-59 -39l114 -504l158 440q-38 13 -61 45
t-23 67q0 61 39 97q39 35 75 35q97 0 130 -72q11 -25 11 -52t-7 -47t-21 -36q-31 -38 -80 -43l42 -453l211 323q-63 36 -63 111q0 32 12 54q33 72 116 72q52 0 88 -35t37 -76q0 -95 -72 -129q-21 -10 -52 -10h-17l-83 -546v-481q-600 -79 -1192 0v481l-81 546h-17
q-55 0 -91 38q-33 33 -33 87q0 53 36 89t88 36q51 0 79 -25q50 -45 50 -111q0 -65 -63 -101zM496 402l396 10h259q46 -2 139 -2l138 -3q51 -1 124 -5v117l-266 11l-264 3l-261 -3q-23 -1 -97 -3t-168 -8v-117zM1290 246q47 1 262 6v83q-28 0 -124 4l-138 3l-138 2h-258
l-138 -2q-90 -1 -167 -4t-93 -3v-83l124 -3q42 -1 136 -3h138q44 -1 128 -1t130 1h138zM1552 107v75q-73 -4 -124 -5l-138 -3q-69 -3 -330 -3t-464 11v-75q242 -34 526 -34t530 34zM895 595q44 2 107 2q107 0 151 -2l-129 575zM656 588q64 2 80 3t116 4l-154 451zM1347 1047
l-151 -452q100 -3 116 -4t80 -3zM490 580q8 2 27 2l73 2q13 1 33 1l-192 318zM1457 584l74 -2q19 0 27 -2l59 323l-192 -318q19 0 32 -1zM964 1398q0 -28 16 -44t42 -17t44 15t18 45t-18 45t-43 17q-26 0 -43 -16q-16 -17 -16 -45zM607 1333q1 -30 19 -45t42 -15
q24 -1 41 15q18 16 18 45t-18 45q-17 16 -41 15q-24 0 -42 -15t-19 -45zM1441 1333q-1 30 -19 45t-42 15q-24 1 -41 -15q-18 -16 -18 -45t18 -45q17 -16 41 -15q24 0 42 15t19 45zM331 1249q-23 0 -41 -14q-18 -15 -19 -45q1 -30 19 -45t41 -15t42 16t19 44q0 29 -19 44
t-42 15zM1717 1130q23 0 41 15t19 45q-1 30 -19 45q-18 14 -41 14t-42 -15t-19 -44q0 -28 19 -44t42 -16z" />
    <glyph glyph-name="uni2656" unicode="&#x2656;" 
d="M1293 1362v111h221v-372h-76l-103 -146v-403l103 -147h76v-148h136v-218h-1252v218h136v148h72l107 147v403l-106 146h-73v372h217v-111h120v111h303v-111h119zM1266 552v403h-483v-403h483zM1442 1168v239h-82v-114h-252v114h-170v-114h-253v114h-82v-239h839zM1580 109
v77h-1110v-77h1110zM1442 257v79h-839v-79h839zM687 405h669l-53 77h-558zM745 1025h558l54 76h-669z" />
    <glyph glyph-name="uni2657" unicode="&#x2657;" 
d="M1222 1187v-65h-164v-385h-68v385h-164v65h164v174h68v-174h164zM770 1375q60 54 120 97q-23 35 -23 73q0 111 95 148q27 12 62 12q34 1 62 -11q59 -25 83 -84q12 -27 12 -65t-23 -73q223 -160 280 -336q24 -69 24 -151q0 -199 -148 -374l74 -266q-95 -62 -258 -77
q65 -28 145 -34q81 -6 143 -10t113 -10l123 -116q-4 -52 -22 -100q-38 -98 -118 -154q-39 -29 -88 -47l-134 143q79 33 122 80q16 21 22 46q-156 10 -220 38q-64 30 -106 66t-84 93h-4q-79 -110 -167 -149t-243 -48q18 -73 144 -126l-134 -143q-148 54 -207 201
q-18 48 -21 100l123 116q51 6 113 10q213 12 288 44q-163 15 -258 77l74 266q-148 175 -148 383q0 207 184 381zM1212 1343q-59 56 -152 114q20 17 35 37t15 56t-24 62t-62 27q-38 -1 -62 -27t-24 -62t15 -56t35 -37q-259 -161 -306 -347q-17 -57 -17 -124q0 -182 123 -320
h472q123 138 123 330t-171 347zM757 439q35 7 203 21l64 1l64 -1q24 -2 91 -6t112 -15l-39 159h-456zM1024 401q-188 0 -281 -27q0 -18 85 -32q81 -19 163 -19q138 0 226 17t88 34q-93 27 -281 27zM674 -73q-86 44 -119 136q-63 0 -101 3q25 -142 159 -201zM1493 63
q-31 -88 -119 -136l61 -62q134 59 159 201q-38 -3 -101 -3zM514 115h30q187 1 266 35t117 71l-4 4q-57 -35 -163 -43q-104 -8 -142 -10t-80 -7l-53 -49q9 -1 29 -1zM1534 115q20 0 29 1l-53 49q-42 5 -80 7t-143 10q-106 8 -162 43l-4 -4q109 -106 383 -106h30z" />
    <glyph glyph-name="uni2658" unicode="&#x2658;" 
d="M820 1156q0 39 67 39q23 1 47 -3t43 -4q-54 -54 -152 -54q-5 15 -5 22zM856 1509q95 -45 142 -135l10 2q13 65 20 172l41 8q74 -66 109 -138q36 -73 47 -113q32 -37 45 -53q12 -16 24 -28q83 -91 114 -126q30 -35 80 -114q96 -167 141 -348q24 -97 24 -231t-37 -366h-924
q-29 80 -29 162q0 135 98 255q36 42 80 82q43 40 93 88t79 90t29 93q-72 -72 -211 -80q-52 -40 -127 -63q-72 -78 -144 -78t-124 85q-14 26 -21 53q-21 31 -21 69t27 72q27 33 62 53q119 156 231 259q-2 11 -2 29t14 43q34 62 119 85q0 49 -19 160zM1119 835
q0 -109 -98 -217q-42 -46 -93 -90t-90 -88q-97 -106 -97 -224q0 -55 13 -107h799q28 174 28 291q1 116 -13 194q-29 166 -117 327q-43 79 -105 153t-86 99t-42 46t-46 52q-12 59 -41 113t-58 84h-6q-5 -50 -7 -76t-11 -59q-11 -3 -38 -8t-90 -18t-92 -30t-45 -37t-16 -40
t4 -40q-113 -100 -248 -277q-52 -39 -62 -59q-7 -8 -7 -28t17 -45q15 -55 42 -78q28 -22 58 -22q58 0 102 68q21 7 44 17t32 14q21 9 66 42q40 0 84 14q91 30 132 98q22 34 22 73h41q24 -76 24 -142zM880 1435q6 -18 11 -88l51 13q-29 53 -59 76zM605 833l1 -6
q-20 -11 -44 -31t-52 -31q-20 20 -24 45zM1443 524q0 164 -42 301t-126 278q100 -110 177 -283q82 -201 82 -359t-26 -283h-115q50 182 50 346z" />
    <glyph glyph-name="uni2659" unicode="&#x2659;" 
d="M938 910q-32 0 -32 -24t32 -25h171q32 1 32 25t-32 24h-171zM1227 286q31 0 31 24t-31 24h-407q-31 0 -31 -24t31 -24h407zM1073 744v49h-99v-49q0 -189 -68 -342h235q-68 153 -68 342zM827 1088q-64 0 -64 -56t64 -55h393q64 -1 64 55t-64 56h-393zM1127 1156
q53 42 53 116t-42 116q-38 42 -108 42h-13q-63 0 -109 -42q-41 -47 -41 -118t53 -114h207zM710 218q-117 0 -119 -109h865q-2 109 -119 109h-627zM1143 743q0 -193 80 -341h6q53 0 79 -27t26 -52t-5 -37h7q106 0 152 -55t45 -156v-36h-1019v36q0 104 46 156q45 55 151 55h7
q-5 12 -5 28q0 33 28 61q28 27 77 27h6q80 148 80 341v52q-34 7 -54 31t-20 46t4 38h-6q-70 0 -105 35t-35 87t37 85q37 34 106 39q-33 53 -33 110q0 108 64 166q57 61 155 61h13q95 0 156 -61q63 -59 63 -141t-33 -135q69 -5 106 -39q37 -33 37 -85t-35 -87t-105 -35h-6
q4 -16 4 -38q1 -22 -19 -46t-55 -31v-52z" />
    <glyph glyph-name="uni265A" unicode="&#x265a;" 
d="M822 659q-144 0 -251 93q-53 45 -83 107q-30 63 -30 117t8 81q33 88 120 88t152 -77q29 -32 54 -84q65 -135 85 -323q-18 -2 -26 -2h-29zM1226 659h-29q-8 0 -26 2q19 182 85 325q25 49 54 82q65 77 157 77q53 -1 89 -43q34 -40 34 -110q0 -142 -110 -238
q-110 -95 -254 -95zM820 595q81 0 125 14q-9 136 -45 269q-21 66 -48 126q-102 205 -261 205q-139 0 -185 -127q-12 -38 -12 -106t37 -143q75 -151 234 -211q74 -28 155 -27zM1228 595q81 -1 155 27q159 59 234 211q37 75 37 143q0 172 -112 216q-36 17 -90 17
q-154 0 -256 -205q-83 -184 -93 -395q44 -14 125 -14zM490 123q208 -20 444 -20q414 0 618 18q-234 39 -491 39q-381 0 -571 -37zM490 289q208 -20 445 -20q414 0 617 18q-234 39 -491 39q-381 0 -571 -37zM490 448q208 -20 422 -20q436 0 640 18q-234 39 -530 39
q-61 0 -134 -3l-144 -6q-192 -16 -254 -28zM993 1564h-57v57h57v59h62v-59h57v-57h-57v-103q113 -165 113 -363q45 77 115 124q73 53 152 53q206 0 275 -165q20 -52 20 -114q0 -129 -73 -241q-73 -111 -192 -166q13 0 37 -3l42 -2q14 -2 37 -3q22 -1 44 -3v-536
q-294 -42 -585 -42t-617 42v536q22 2 38 2l43 4l42 2q24 3 37 3q-184 84 -245 279q-20 66 -20 128t20 113q43 106 146 145q49 21 103 21q105 0 178 -53q70 -47 115 -124q0 198 113 363v103zM951 1077q0 -82 24 -209q24 -128 31 -164t14 -114h4v790q-73 -123 -73 -303z" />
    <glyph glyph-name="uni265B" unicode="&#x265b;" 
d="M490 123q208 -20 444 -20q414 0 618 18q-234 39 -491 39q-381 0 -571 -37zM490 289q208 -20 445 -20q414 0 617 18q-234 39 -491 39q-381 0 -571 -37zM520 582q22 0 34 1l-123 320l59 -323q8 2 30 2zM1460 584q26 0 38 -1l119 320l-192 -318q9 -1 35 -1zM1649 1210
q0 -23 16 -39t39 -16t39 16t16 39t-16 39t-39 16t-39 -16t-16 -39zM599 1352q0 -23 16 -39t39 -16t39 16t16 39t-16 39t-39 16t-39 -16t-16 -39zM957 1418q0 -23 16 -39t39 -16t39 16t16 39t-16 39t-39 16t-39 -16t-16 -39zM1312 1352q0 -23 16 -39t39 -16t39 16t16 39
t-16 39t-39 16t-39 -16t-16 -39zM264 1210q0 -23 16 -39t39 -16t39 16t16 39t-16 39t-39 16t-39 -16t-16 -39zM656 588q60 4 98 4l-56 454zM1248 594q18 0 26 -2h21l52 455l-151 -452q15 0 24 -1h28zM895 595q44 2 129 2v573zM490 448q208 -20 422 -20q436 0 640 18
q-234 39 -530 39q-61 0 -134 -3l-144 -6q-192 -16 -254 -28zM395 1079l211 -323l42 453q-76 9 -101 79q-7 20 -7 61t38 75q38 35 88 35q50 -1 78 -25t40 -48t11 -59q0 -35 -23 -67t-61 -45l158 -440l114 504q-33 10 -59 39t-26 83t36 88q36 35 73 35q100 0 131 -71
q12 -24 12 -65t-26 -70t-59 -39l114 -504l158 440q-38 13 -61 45t-23 67q0 61 39 97q39 35 75 35q97 0 130 -72q11 -25 11 -52t-7 -47t-21 -36q-31 -38 -80 -43l42 -453l211 323q-63 36 -63 111q0 32 12 54q33 72 116 72q52 0 88 -35t37 -76q0 -95 -72 -129q-21 -10 -52 -10
h-17l-83 -546v-481q-600 -79 -1192 0v481l-81 546h-17q-55 0 -91 38q-33 33 -33 87q0 53 36 89t88 36q51 0 79 -25q50 -45 50 -111q0 -65 -63 -101z" />
    <glyph glyph-name="uni265C" unicode="&#x265c;" 
d="M1329 444l-26 37h-556l-27 -37h609zM720 1091l27 -37h556l26 37h-609zM1442 298v37h-834v-37h834zM1442 1201v37h-834v-37h834zM1293 1362v111h221v-372h-76l-103 -146v-403l103 -147h76v-148h136v-218h-1252v218h136v148h72l107 147v403l-106 146h-73v372h217v-111h120
v111h303v-111h119z" />
    <glyph glyph-name="uni265D" unicode="&#x265d;" 
d="M963 1594q0 40 15 62q-28 -14 -45 -42t-17 -60q0 -30 21 -58l48 30q-22 28 -22 68zM1534 115q20 0 29 1l-53 49q-42 5 -80 7t-143 10q-106 8 -162 43l-4 -4q109 -106 383 -106h30zM514 115h30q187 1 266 35t117 71l-4 4q-57 -35 -163 -43q-104 -8 -142 -10t-80 -7
l-53 -49q9 -1 29 -1zM757 389q52 10 117 15l22 176q-74 -14 -98 -23zM695 1102v20q0 8 2 22h-5q-27 -77 -27 -167t39 -179t100 -150l99 18q-208 152 -208 436zM1058 1187v174h-68v-174h-164v-65h164v-385h68v385h164v65h-164zM770 1375q60 54 120 97q-23 35 -23 73
q0 111 95 148q27 12 62 12q34 1 62 -11q59 -25 83 -84q12 -27 12 -65t-23 -73q223 -160 280 -336q24 -69 24 -151q0 -199 -148 -374l74 -266q-95 -62 -258 -77q65 -28 145 -34q81 -6 143 -10t113 -10l123 -116q-4 -52 -22 -100q-38 -98 -118 -154q-39 -29 -88 -47l-134 143
q79 33 122 80q16 21 22 46q-156 10 -220 38q-64 30 -106 66t-84 93h-4q-79 -110 -167 -149t-243 -48q18 -73 144 -126l-134 -143q-148 54 -207 201q-18 48 -21 100l123 116q51 6 113 10q213 12 288 44q-163 15 -258 77l74 266q-148 175 -148 383q0 207 184 381z" />
    <glyph glyph-name="uni265E" unicode="&#x265e;" 
d="M1443 536q0 -177 -50 -358h115q26 124 26 254q0 193 -77 375t-182 296q168 -282 168 -567zM856 1509q95 -45 142 -135l10 2q13 65 20 172l41 8q74 -66 109 -138q36 -73 47 -113q32 -37 45 -53q12 -16 24 -28q83 -91 114 -126q30 -35 80 -114q96 -167 141 -348
q24 -97 24 -231t-37 -366h-924q-29 80 -29 162q0 135 98 255q36 42 80 82q43 40 93 88t79 90t29 93q-72 -72 -211 -80q-52 -40 -127 -63q-72 -78 -144 -78t-124 85q-14 26 -21 53q-21 31 -21 69t27 72q27 33 62 53q119 156 231 259q-2 11 -2 29t14 43q34 62 119 85
q0 49 -19 160zM820 1156q0 -7 5 -22q98 0 152 54l-90 7q-67 0 -67 -39zM486 810q4 -24 24 -45q28 11 52 31t44 31l-1 6z" />
    <glyph glyph-name="uni265F" unicode="&#x265f;" 
d="M1141 885q0 25 -32 25h-171q-32 0 -32 -25h235zM820 334q-31 0 -31 -25h469q0 25 -31 25h-407zM974 744q0 -189 -68 -342h91v391h-23v-49zM1064 1426q-15 6 -38 6q-78 0 -118 -44t-41 -116q0 -73 53 -116h119q-41 15 -66 50t-25 84t34 88q27 37 82 48zM1284 1033
q0 55 -64 55h-393q-31 0 -48 -14q-16 -15 -16 -41h521zM710 218q-87 0 -109 -57h845q-22 57 -109 57h-627zM1143 743q0 -193 80 -341h6q53 0 79 -27t26 -52t-5 -37h7q106 0 152 -55t45 -156v-36h-1019v36q0 104 46 156q45 55 151 55h7q-5 12 -5 28q0 33 28 61q28 27 77 27h6
q80 148 80 341v52q-34 7 -54 31t-20 46t4 38h-6q-70 0 -105 35t-35 87t37 85q37 34 106 39q-33 53 -33 110q0 108 64 166q62 61 162 61t161 -61q64 -58 64 -140q0 -83 -33 -136q69 -5 106 -39q37 -33 37 -85t-35 -87t-105 -35h-6q4 -16 4 -38q1 -22 -19 -46t-55 -31v-52z
" />
    <glyph glyph-name="spade" unicode="&#x2660;" horiz-adv-x="1402" 
d="M812 366q24 -182 154 -291v-75h-530v75q97 82 140 219q10 42 14 72q-73 -60 -193 -60q-121 0 -209 86q-94 98 -94 251q0 94 32 178q65 160 204 295q79 77 116 109q37 33 80 71q44 38 88 78t83 84h8q37 -45 81 -83q44 -39 64 -57q21 -18 47 -41t61 -53q153 -134 219 -227
q131 -186 131 -346q0 -161 -94 -259q-88 -86 -209 -86q-120 0 -193 60z" />
    <glyph glyph-name="uni2661" unicode="&#x2661;" horiz-adv-x="1402" 
d="M1182 963q0 231 -188 231q-98 0 -178 -84q-56 -56 -115 -178q-61 124 -106 170q-90 92 -195 92q-39 0 -71 -13q-109 -45 -109 -234t188 -387q73 -76 167 -160q94 -83 128 -120q31 34 67 66t101 91q149 135 230 259t81 267zM400 1315q192 0 296 -180h9q44 76 119 128
t156 52q153 0 234 -87q94 -90 94 -268q0 -254 -234 -488q-63 -66 -192 -181q-128 -114 -177 -171h-9q-50 57 -96 99q-46 41 -130 117t-146 139q-230 238 -230 488q0 175 94 265q81 87 212 87z" />
    <glyph glyph-name="uni2662" unicode="&#x2662;" horiz-adv-x="1402" 
d="M1030 716l-329 485l-328 -485l328 -483zM205 716l496 718l497 -718l-497 -716z" />
    <glyph glyph-name="club" unicode="&#x2663;" horiz-adv-x="1402" 
d="M966 0h-530v75q97 78 137 242q13 55 13 125q-81 -56 -163 -56q-147 0 -237 84q-92 88 -92 225q0 133 86 225q91 89 226 93q-16 51 -16 109t23 118q46 118 161 169q56 25 127 25q137 0 225 -92q86 -92 86 -220q0 -58 -16 -109q135 -4 226 -93q86 -92 86 -225
q0 -137 -91 -223t-236 -86q-79 0 -165 56q0 -68 13 -126q37 -163 137 -241v-75z" />
    <glyph glyph-name="uni2664" unicode="&#x2664;" horiz-adv-x="1402" 
d="M731 468v70h10q101 -114 252 -114q121 0 175 122q16 44 16 108q0 133 -83 251t-215 234q-52 48 -100 89t-85 80q-37 -39 -85 -80q-221 -187 -302 -308q-96 -130 -96 -277q0 -54 18 -97q34 -84 103 -108q32 -14 70 -14q151 0 252 114h10v-70q0 -252 -79 -359h218
q-79 107 -79 359zM812 366q24 -182 154 -291v-75h-530v75q97 82 140 219q10 42 14 72q-73 -60 -193 -60q-121 0 -209 86q-94 98 -94 251q0 94 32 178q65 160 204 295q79 77 116 109q37 33 80 71q44 38 88 78t83 84h8q37 -45 81 -83q44 -39 64 -57q21 -18 47 -41t61 -53
q153 -134 219 -227q131 -186 131 -346q0 -161 -94 -259q-88 -86 -209 -86q-120 0 -193 60z" />
    <glyph glyph-name="heart" unicode="&#x2665;" horiz-adv-x="1402" 
d="M400 1315q192 0 296 -180h9q44 76 119 128t156 52q153 0 234 -87q94 -90 94 -268q0 -254 -234 -488q-63 -66 -192 -181q-128 -114 -177 -171h-9q-50 57 -96 99q-46 41 -130 117t-146 139q-230 238 -230 488q0 175 94 265q81 87 212 87z" />
    <glyph glyph-name="diamond" unicode="&#x2666;" horiz-adv-x="1402" 
d="M205 716l496 718l497 -718l-497 -716z" />
    <glyph glyph-name="uni2667" unicode="&#x2667;" horiz-adv-x="1402" 
d="M731 468v142h10q91 -88 154 -96q64 -9 100 -9q78 0 131 51q58 58 58 152t-58 146q-61 63 -180 63q-37 0 -76 -7l-14 16q39 107 39 170q0 116 -61 170q-49 49 -133 49q-83 0 -138 -53q-56 -53 -56 -141q0 -89 39 -195l-14 -16q-38 7 -88 7q-107 0 -168 -63
q-58 -52 -58 -147q0 -94 55 -148t155 -54t173 55q27 18 60 50h10v-142q0 -252 -79 -359h218q-79 107 -79 359zM966 0h-530v75q97 78 137 242q13 55 13 125q-81 -56 -163 -56q-147 0 -237 84q-92 88 -92 225q0 133 86 225q91 89 226 93q-16 51 -16 109t23 118q46 118 161 169
q56 25 127 25q137 0 225 -92q86 -92 86 -220q0 -58 -16 -109q135 -4 226 -93q86 -92 86 -225q0 -137 -91 -223t-236 -86q-79 0 -165 56q0 -68 13 -126q37 -163 137 -241v-75z" />
    <glyph glyph-name="uni2668" unicode="&#x2668;" horiz-adv-x="1764" 
d="M1379 221q38 0 38 46q0 73 -103 114q-142 62 -404 62l-70 -1q-24 -2 -72 -4q-37 -7 -35 -41q1 -15 11 -25t24 -11h4q76 6 200 6t244 -31t130 -64q-3 -8 -3 -14q0 -28 22 -37h14zM322 273q0 -33 22 -59t73 -55q52 -29 171 -52q119 -22 201 -22q83 1 93 11t10 28t-10 27
q-10 10 -24 10q-204 0 -346 44q-59 17 -88 37t-29 31t27 31q60 33 96 42q36 10 44 20t7 20q0 10 -1 11q-9 30 -37 30h-6q-203 -56 -203 -154zM1096 662v9q0 63 45 109t45 85v6q-4 41 -38 67q-12 10 -12 25t8 32t25 17q32 0 90 -51q57 -51 57 -108v-10q0 -60 -46 -110
t-45 -86v-5q5 -41 37 -62q2 -8 9 -18t9 -14q250 -65 323 -185q26 -43 26 -93q0 -147 -237 -238q-212 -83 -510 -83q-90 0 -184 10q-290 31 -451 135q-113 77 -113 178q0 93 100 165t273 115q-59 59 -59 110v11q0 60 45 107q45 48 45 88v3q-6 43 -28 60t-22 33t8 32t24 16
t22 -3q31 -14 61 -43q65 -61 65 -112v-10q0 -61 -45 -110q-45 -50 -45 -86v-6q0 -36 33 -62l5 -6q85 14 201 21q-84 84 -84 175q-1 90 79 176t80 167v10q-6 57 -37 95t-38 38q-16 13 -16 29q1 16 9 32t22 16t20 -2t10 -4t12 -7q8 -6 22 -14q16 -8 56 -40q36 -33 72 -81
t35 -129q1 -80 -79 -166t-80 -150t20 -96t38 -51q92 -4 175 -17q-37 47 -37 86z" />
    <glyph glyph-name="uni2669" unicode="&#x2669;" horiz-adv-x="803" 
d="M349 -25q-101 1 -153 53t-52 124t23 120q46 99 154 142q53 20 103 20t88 -11v1011h103v-1145q0 -61 -20 -119q-40 -118 -138 -170q-52 -25 -108 -25z" />
    <glyph glyph-name="musicalnote" unicode="&#x266a;" horiz-adv-x="1087" 
d="M816 752q19 71 19 139t-27 113q-29 61 -151 135q-26 16 -42 34v-884q0 -61 -20 -119q-40 -118 -138 -170q-52 -25 -108 -25q-101 1 -153 53t-52 124t23 120q46 99 154 142q53 20 103 20t88 -11v1011h103v-27q0 -45 34 -80t110 -88q77 -53 107 -83t51 -68q21 -37 28 -72
q7 -34 7 -88q0 -98 -58 -202z" />
    <glyph glyph-name="musicalnotedbl" unicode="&#x266b;" horiz-adv-x="1718" 
d="M1060 -221q-100 1 -152 53t-53 124q0 128 85 206q90 76 196 76q50 0 87 -11v882l-608 146v-966q0 -61 -20 -119q-40 -118 -138 -170q-52 -25 -108 -25q-101 1 -153 53t-52 124t23 120q46 99 154 142q53 20 103 20t88 -11v1011l814 -196v-1145q0 -65 -18 -119
q-40 -116 -140 -170q-52 -25 -108 -25z" />
    <glyph glyph-name="uni266C" unicode="&#x266c;" horiz-adv-x="1856" 
d="M615 1118h746v164h-746v-164zM1198 -25q-100 1 -152 53t-53 124q0 128 85 206q90 76 196 76q50 0 87 -11v543h-746v-677q0 -61 -20 -119q-40 -118 -138 -170q-52 -25 -108 -25q-101 1 -153 53t-52 124t23 120q46 99 154 142q53 20 103 20t88 -11v1011h952v-1145
q0 -65 -18 -119q-40 -116 -140 -170q-52 -25 -108 -25z" />
    <glyph glyph-name="uni266D" unicode="&#x266d;" horiz-adv-x="924" 
d="M458 597q-82 0 -167 -69v-474q78 6 138 38q116 61 159 188q19 64 19 118q0 144 -83 184q-28 15 -66 15zM544 695q58 -1 102 -21q134 -63 134 -260q0 -150 -96 -250q-112 -124 -340 -155q-66 -9 -118 -9h-38v1434h103v-846q119 107 253 107z" />
    <glyph glyph-name="uni266E" unicode="&#x266e;" horiz-adv-x="843" 
d="M291 418l261 145v453l-261 -145v-453zM188 243v1191h103v-413l301 169h63v-1191h-103v412l-303 -168h-61z" />
    <glyph glyph-name="uni266F" unicode="&#x266f;" horiz-adv-x="883" 
d="M311 425l261 139v446l-261 -139v-446zM572 1434h103v-217l160 85v-152l-160 -85v-446l160 85v-152l-160 -85v-294h-103v239l-261 -139v-273h-103v218l-160 -85v152l160 85v446l-160 -85v152l160 85v270h103v-215l261 139v272z" />
    <glyph glyph-name="uni2670" unicode="&#x2670;" horiz-adv-x="1249" 
d="M558 369v512q-135 0 -226 -27q-72 -27 -134 -80l-60 59q45 49 45 114t-45 115l60 59q66 -57 139 -82t221 -25v49q0 127 -20 184q-31 89 -87 152l59 60q50 -45 114 -45t115 45l59 -60q-54 -60 -81 -134q-26 -74 -26 -202v-49q147 0 226 28q62 18 134 79l60 -59
q-45 -51 -45 -115q0 -65 45 -114l-60 -59q-67 56 -143 82q-76 25 -217 25v-511q1 -180 61 -275q18 -29 46 -60l-59 -60q-51 45 -115 45t-114 -45l-59 60q61 73 84 138t23 196z" />
    <glyph glyph-name="uni2671" unicode="&#x2671;" horiz-adv-x="1249" 
d="M625 52q20 22 63 45l-57 114h-12l-58 -114q46 -27 64 -45zM1034 947q-18 18 -45 64l-115 -59v-11l115 -57q23 43 45 63zM260 1011q-23 -43 -45 -63q23 -23 45 -64l115 58v11zM688 1336q-43 23 -63 45q-18 -18 -64 -45l58 -115h11zM782 967h-137v140h-40v-140h-137v-39
h137v-366h40v366h137v39zM558 1014v207l-66 132v10q77 32 128 95h10q45 -60 127 -95v-10l-66 -133v-206h183l132 66h10q32 -77 95 -128v-10q-60 -45 -95 -127h-10l-133 66h-182v-669l66 -132v-10q-82 -35 -127 -95h-10q-51 63 -128 95v10l66 131v670h-184l-131 -66h-10
q-32 77 -95 128v10q60 45 95 127h10l132 -66h183z" />
    <glyph glyph-name="uni2672" unicode="&#x2672;" horiz-adv-x="1831" 
d="M421 -26q-116 0 -162 74l-140 218q-25 38 -25 84t27 92l230 373l-108 61l14 29l323 45l119 -294l-13 -24l-103 56l-270 -449h445l-109 -134l98 -131h-326zM162 283l73 -116q5 46 29 83l299 499l71 -40l-82 190l-208 -26l74 -42l-253 -411q-24 -46 -24 -74t21 -63z
M280 133q0 -111 142 -111h236l-69 84l73 83h-372q-10 -27 -10 -56zM1709 459q28 -54 28 -101t-18 -77l-126 -226q-44 -81 -158 -81h-473v-128h-36l-197 258l197 250h36v-115h577l-225 392l179 -24l62 140zM1537 189h-625v68l-116 -152l116 -156v74h522q50 0 67 9
q31 16 56 52l65 117q-23 -12 -85 -12zM1668 439l-114 208l-36 -87l-115 17l188 -332q49 7 75 37t26 69q0 40 -24 88zM810 1434h261q59 0 89 -20t62 -70l234 -411l110 64l16 -30l-125 -299l-313 44l-17 31l97 56l-287 499l-255 -437l-66 151l-159 -15l203 342q29 49 63 72
t87 23zM1063 1391h-137q24 -14 43 -47l324 -563l-59 -31l192 -27l75 180l-64 -38l-259 455q-12 24 -42 50q-34 21 -73 21zM909 1347q-35 44 -83 44t-73 -16t-51 -62l-155 -259l100 11l40 -100z" />
    <glyph glyph-name="uni2673" unicode="&#x2673;" horiz-adv-x="1801" 
d="M979 515h106v-98h-332v98h107v307q-75 -18 -98 -18l-12 -3v99l229 45v-430zM910 1315q-64 0 -117 -95l-128 -216l-116 71l128 214q25 43 51 75q73 94 184 94q106 0 178 -95q26 -34 50 -75l261 -441l171 103l3 -5l-132 -303l-321 31l-2 5l165 98l-262 442q-30 49 -53 73
q-24 24 -60 24zM378 137h254v-137h-254q-126 0 -203 54q-81 62 -81 174q0 73 49 158l268 465l-174 96l3 6l328 30l128 -298l-2 -3l-165 98l-269 -464q-27 -52 -27 -93q0 -86 145 -86zM912 332v-195h538q61 0 92 25q28 28 28 64q0 67 -55 158l-97 163l117 71l109 -187
q63 -106 63 -205q0 -98 -64 -160q-66 -66 -193 -66h-540l2 -197h-5l-194 266l194 263h5z" />
    <glyph glyph-name="uni2674" unicode="&#x2674;" horiz-adv-x="1801" 
d="M1077 806q0 -58 -27 -102q-27 -46 -83 -97l-97 -88h202v-102h-345v92l150 142q43 41 60 69t17 61q0 66 -71 66q-59 0 -132 -56v109q69 45 154 45q84 -1 128 -41t44 -98zM910 1315q-64 0 -117 -95l-128 -216l-116 71l128 214q25 43 51 75q73 94 184 94q106 0 178 -95
q26 -34 50 -75l261 -441l171 103l3 -5l-132 -303l-321 31l-2 5l165 98l-262 442q-30 49 -53 73q-24 24 -60 24zM378 137h254v-137h-254q-126 0 -203 54q-81 62 -81 174q0 73 49 158l268 465l-174 96l3 6l328 30l128 -298l-2 -3l-165 98l-269 -464q-27 -52 -27 -93
q0 -86 145 -86zM912 332v-195h538q61 0 92 25q28 28 28 64q0 67 -55 158l-97 163l117 71l109 -187q63 -106 63 -205q0 -98 -64 -160q-66 -66 -193 -66h-540l2 -197h-5l-194 266l194 263h5z" />
    <glyph glyph-name="uni2675" unicode="&#x2675;" horiz-adv-x="1801" 
d="M973 687q104 -21 104 -134q1 -59 -53 -102t-144 -43t-139 25v111q59 -41 125 -41q87 1 87 67t-107 66h-51v95h47q95 0 95 63q0 57 -71 57q-49 0 -105 -38v103q55 29 133 29q78 -1 122 -37t45 -95q0 -95 -88 -126zM910 1315q-64 0 -117 -95l-128 -216l-116 71l128 214
q25 43 51 75q73 94 184 94q106 0 178 -95q26 -34 50 -75l261 -441l171 103l3 -5l-132 -303l-321 31l-2 5l165 98l-262 442q-30 49 -53 73q-24 24 -60 24zM378 137h254v-137h-254q-126 0 -203 54q-81 62 -81 174q0 73 49 158l268 465l-174 96l3 6l328 30l128 -298l-2 -3
l-165 98l-269 -464q-27 -52 -27 -93q0 -86 145 -86zM912 332v-195h538q61 0 92 25q28 28 28 64q0 67 -55 158l-97 163l117 71l109 -187q63 -106 63 -205q0 -98 -64 -160q-66 -66 -193 -66h-540l2 -197h-5l-194 266l194 263h5z" />
    <glyph glyph-name="uni2676" unicode="&#x2676;" horiz-adv-x="1801" 
d="M927 772q0 23 2 33l-13 -26l-106 -165h117v158zM1038 527v-110h-111v110h-224v76l219 334h116v-323h62v-87h-62zM912 332v-195h538q61 0 92 25q28 28 28 64q0 67 -55 158l-97 163l117 71l109 -187q63 -106 63 -205q0 -98 -64 -160q-66 -66 -193 -66h-540l2 -197h-5
l-194 266l194 263h5zM378 137h254v-137h-254q-126 0 -203 54q-81 62 -81 174q0 73 49 158l268 465l-174 96l3 6l328 30l128 -298l-2 -3l-165 98l-269 -464q-27 -52 -27 -93q0 -86 145 -86zM910 1315q-64 0 -117 -95l-128 -216l-116 71l128 214q25 43 51 75q73 94 184 94
q106 0 178 -95q26 -34 50 -75l261 -441l171 103l3 -5l-132 -303l-321 31l-2 5l165 98l-262 442q-30 49 -53 73q-24 24 -60 24z" />
    <glyph glyph-name="uni2677" unicode="&#x2677;" horiz-adv-x="1801" 
d="M860 742q12 3 40 3q82 -1 127 -43t45 -100q0 -96 -60 -145t-135 -49q-76 0 -136 25v106q65 -36 113 -36q94 0 94 73t-96 73q-46 0 -96 -6v294h292v-101h-188v-94zM910 1315q-64 0 -117 -95l-128 -216l-116 71l128 214q25 43 51 75q73 94 184 94q106 0 178 -95
q26 -34 50 -75l261 -441l171 103l3 -5l-132 -303l-321 31l-2 5l165 98l-262 442q-30 49 -53 73q-24 24 -60 24zM378 137h254v-137h-254q-126 0 -203 54q-81 62 -81 174q0 73 49 158l268 465l-174 96l3 6l328 30l128 -298l-2 -3l-165 98l-269 -464q-27 -52 -27 -93
q0 -86 145 -86zM912 332v-195h538q61 0 92 25q28 28 28 64q0 67 -55 158l-97 163l117 71l109 -187q63 -106 63 -205q0 -98 -64 -160q-66 -66 -193 -66h-540l2 -197h-5l-194 266l194 263h5z" />
    <glyph glyph-name="uni2678" unicode="&#x2678;" horiz-adv-x="1801" 
d="M919 662q-31 0 -48 -22t-17 -54t18 -58t47 -25t45 23t17 57q0 79 -62 79zM971 851q-49 1 -82 -37t-36 -105q37 45 103 45t105 -44t39 -120t-54 -130q-56 -52 -137 -52q-79 0 -129 64t-50 183t61 205q61 85 175 85q61 0 97 -14v-107q-43 27 -92 27zM910 1315
q-64 0 -117 -95l-128 -216l-116 71l128 214q25 43 51 75q73 94 184 94q106 0 178 -95q26 -34 50 -75l261 -441l171 103l3 -5l-132 -303l-321 31l-2 5l165 98l-262 442q-30 49 -53 73q-24 24 -60 24zM378 137h254v-137h-254q-126 0 -203 54q-81 62 -81 174q0 73 49 158
l268 465l-174 96l3 6l328 30l128 -298l-2 -3l-165 98l-269 -464q-27 -52 -27 -93q0 -86 145 -86zM912 332v-195h538q61 0 92 25q28 28 28 64q0 67 -55 158l-97 163l117 71l109 -187q63 -106 63 -205q0 -98 -64 -160q-66 -66 -193 -66h-540l2 -197h-5l-194 266l194 263h5z
" />
    <glyph glyph-name="uni2679" unicode="&#x2679;" horiz-adv-x="1801" 
d="M733 836v101h366v-58l-181 -462h-130l182 419h-237zM910 1315q-64 0 -117 -95l-128 -216l-116 71l128 214q25 43 51 75q73 94 184 94q106 0 178 -95q26 -34 50 -75l261 -441l171 103l3 -5l-132 -303l-321 31l-2 5l165 98l-262 442q-30 49 -53 73q-24 24 -60 24zM378 137
h254v-137h-254q-126 0 -203 54q-81 62 -81 174q0 73 49 158l268 465l-174 96l3 6l328 30l128 -298l-2 -3l-165 98l-269 -464q-27 -52 -27 -93q0 -86 145 -86zM912 332v-195h538q61 0 92 25q28 28 28 64q0 67 -55 158l-97 163l117 71l109 -187q63 -106 63 -205
q0 -98 -64 -160q-66 -66 -193 -66h-540l2 -197h-5l-194 266l194 263h5z" />
    <glyph glyph-name="uni267A" unicode="&#x267a;" horiz-adv-x="1801" 
d="M910 1315q-64 0 -117 -95l-128 -216l-116 71l128 214q25 43 51 75q73 94 184 94q106 0 178 -95q26 -34 50 -75l261 -441l171 103l3 -5l-132 -303l-321 31l-2 5l165 98l-262 442q-30 49 -53 73q-24 24 -60 24zM378 137h254v-137h-254q-126 0 -203 54q-81 62 -81 174
q0 73 49 158l268 465l-174 96l3 6l328 30l128 -298l-2 -3l-165 98l-269 -464q-27 -52 -27 -93q0 -86 145 -86zM912 332v-195h538q61 0 92 25q28 28 28 64q0 67 -55 158l-97 163l117 71l109 -187q63 -106 63 -205q0 -98 -64 -160q-66 -66 -193 -66h-540l2 -197h-5l-194 266
l194 263h5z" />
    <glyph glyph-name="uni267B" unicode="&#x267b;" horiz-adv-x="1806" 
d="M619 315h11q8 0 13 1l54 -413q-29 -8 -67 -8t-102 13q-127 34 -212 110q-46 45 -68 115q-5 15 -28 75q-22 60 -55 152t-56 156l-3 24q-2 10 -2 44q0 81 70 183q70 103 154 133l-70 150l451 -166l-160 -467l-58 129q-61 -42 -115 -121q104 -110 243 -110zM1348 369
q0 118 -64 206l307 265q43 -47 77 -127t36 -131q3 -52 3 -82q-1 -30 -7 -65q-6 -37 -16 -53t-26 -39l-35 -49q-17 -24 -45 -61l-48 -66q-22 -29 -66 -89t-68 -90t-83 -50q-58 -20 -122 -19q-132 0 -214 66l-86 -140l-104 483l466 109l-74 -119q63 -30 157 -39q12 34 12 90z
M1405 1080q0 -20 -3 -38l158 -10l-357 -328l-314 372l137 -9q-10 80 -46 161q-32 -8 -68 -26q-109 -57 -155 -164l-371 154q28 117 166 228q100 75 163 75q37 0 47 -2l423 -65q43 -4 87 -40q40 -38 70 -90q62 -110 63 -218z" />
    <glyph glyph-name="uni267C" unicode="&#x267c;" horiz-adv-x="1670" 
d="M398 392q0 -73 82 -73h255l-58 73l58 72h-310l-16 -28q-11 -19 -11 -44zM374 388q0 16 6 36t8 20l228 387l60 -36l-64 170l-183 -27l63 -37l-185 -307q-16 -25 -16 -49t14 -49l81 -150q-12 26 -12 42zM1293 485q42 0 63 24q19 25 19 49q0 43 -20 79l-109 191l-32 -85
l-99 14l158 -272h20zM847 464v71l-116 -142l116 -146v72h359q32 -1 52 7t36 37l86 148q-30 -47 -87 -47h-446zM766 1263q-34 0 -54 -11q-16 -12 -36 -44l-123 -208l86 10l34 -89l162 279l-12 22q-23 41 -57 41zM924 1284h-168q36 -2 54 -14t31 -38l222 -382l-62 -36l183 -28
l68 174l-64 -38l-177 310q-15 26 -33 39q-19 13 -54 13zM94 717q0 308 210 524q217 217 531 217t531 -217q210 -216 210 -524t-210 -524q-217 -217 -531 -217t-531 217q-210 216 -210 524z" />
    <glyph glyph-name="uni267D" unicode="&#x267d;" horiz-adv-x="1670" 
d="M480 319q-82 0 -82 73q0 25 11 44l16 28h310l-58 -72l58 -73h-255zM291 545q0 24 16 49l185 307l-63 37l183 27l64 -170l-60 36l-228 -387q-2 0 -8 -20t-6 -31q0 -21 12 -47l-81 150q-14 25 -14 49zM1356 509q-21 -24 -63 -24h-20l-158 272l99 -14l32 85l109 -191
q20 -36 20 -69q0 -34 -19 -59zM1206 319h-359v-72l-116 146l116 142v-71h446q57 0 87 47l-86 -148q-16 -29 -36 -37t-52 -7zM766 1263q34 0 57 -41l12 -22l-162 -279l-34 89l-86 -10l123 208q20 32 36 44q20 11 54 11zM924 1284q36 0 54 -13t33 -39l177 -310l64 38l-68 -174
l-183 28l62 36l-222 382q-13 26 -31 38t-54 14h168zM194 740q0 -390 319 -586q147 -88 306 -88q295 0 479 190q84 88 131 208t47 253t-47 253t-131 208q-184 190 -454 190q-271 0 -460 -191q-90 -90 -140 -207q-50 -118 -50 -230zM94 717q0 308 210 524q217 217 531 217
t531 -217q210 -216 210 -524t-210 -524q-217 -217 -531 -217t-531 217q-210 216 -210 524z" />
    <glyph glyph-name="uni267E" unicode="&#x267e;" horiz-adv-x="1670" 
d="M412 793q-12 -33 -12 -93t46 -114q48 -52 123 -52q131 0 222 184q-101 182 -219 182q-117 0 -160 -107zM1102 534q72 0 120 52q47 53 47 113q0 99 -45 150q-49 51 -122 51q-131 0 -222 -181q101 -185 222 -185zM1102 991q116 0 188 -78q72 -79 72 -195q0 -119 -73 -195
t-187 -76q-153 0 -265 190q-106 -190 -268 -190q-112 0 -189 77q-72 83 -72 197q0 118 73 194t188 76q146 0 265 -191q111 191 268 191zM194 740q0 -390 319 -586q147 -88 306 -88q295 0 479 190q84 88 131 208t47 253t-47 253t-131 208q-184 190 -454 190q-271 0 -460 -191
q-90 -90 -140 -207q-50 -118 -50 -230zM94 717q0 308 210 524q217 217 531 217t531 -217q210 -216 210 -524t-210 -524q-217 -217 -531 -217t-531 217q-210 216 -210 524z" />
    <glyph glyph-name="uni267F" unicode="&#x267f;" horiz-adv-x="1324" 
d="M947 628q23 0 44 -12t29 -29l232 -410q11 -19 11 -41q0 -45 -42 -71q-19 -11 -43 -11t-43 13t-26 29l-209 368h-281q-46 0 -82 24t-47 75l-111 383q-5 20 -5 52t34 76q34 45 91 45t93 -26t47 -60q23 -78 23 -83l14 -47h232q21 -1 37 -17t16 -39t-15 -41q-17 -17 -38 -17
h-201l46 -161h194zM375 665q-124 -97 -124 -245q0 -147 97 -243t232 -96q53 0 105 18q98 34 161 121q31 42 46 93l99 -172q-67 -104 -176 -163q-109 -60 -223 -60t-204 38q-183 78 -263 262q-39 90 -39 175q0 147 66 260t174 179zM619 1312q0 -88 -83 -126q-28 -10 -54 -10
t-52 12q-49 21 -72 71q-10 28 -10 53t11 52q35 86 124 86q57 0 87 -32t40 -54t9 -52z" />
    <glyph glyph-name="uni2680" unicode="&#x2680;" horiz-adv-x="1546" 
d="M1239 255v924h-927v-924h927zM188 1303h1175v-1172h-1175v1172zM874 726q0 -107 -110 -107q-30 0 -59 27q-28 28 -28 71t27 71t57 27q57 -1 85 -29t28 -60z" />
    <glyph glyph-name="uni2681" unicode="&#x2681;" horiz-adv-x="1546" 
d="M1239 255v924h-927v-924h927zM188 1303h1175v-1172h-1175v1172zM490 894q-32 0 -61 28q-28 28 -28 70t27 70q28 28 60 28q78 0 102 -60q8 -18 8 -40q0 -34 -28 -68q-20 -16 -34 -22t-46 -6zM1042 344q-32 0 -61 28q-28 28 -28 70t27 70q28 28 60 28q78 0 102 -60
q8 -18 8 -40q0 -34 -28 -68q-20 -16 -34 -22t-46 -6z" />
    <glyph glyph-name="uni2682" unicode="&#x2682;" horiz-adv-x="1546" 
d="M1239 255v924h-927v-924h927zM188 1303h1175v-1172h-1175v1172zM490 894q-32 0 -61 28q-28 28 -28 70t27 70q28 28 60 28q78 0 102 -60q8 -18 8 -40q0 -34 -28 -68q-20 -16 -34 -22t-46 -6zM1042 344q-32 0 -61 28q-28 28 -28 70t27 70q28 28 60 28q78 0 102 -60
q8 -18 8 -40q0 -34 -28 -68q-20 -16 -34 -22t-46 -6zM874 726q0 -107 -110 -107q-30 0 -59 27q-28 28 -28 71t27 71t57 27q57 -1 85 -29t28 -60z" />
    <glyph glyph-name="uni2683" unicode="&#x2683;" horiz-adv-x="1546" 
d="M1239 255v924h-927v-924h927zM188 1303h1175v-1172h-1175v1172zM490 894q-32 0 -61 28q-28 28 -28 70t27 70q28 28 60 28q78 0 102 -60q8 -18 8 -40q0 -34 -28 -68q-20 -16 -34 -22t-46 -6zM490 344q-32 0 -61 28q-28 28 -28 70t27 70q28 28 60 28q78 0 102 -60
q8 -18 8 -40q0 -34 -28 -68q-20 -16 -34 -22t-46 -6zM1042 894q-32 0 -61 28q-28 28 -28 70t27 70q28 28 60 28q78 0 102 -60q8 -18 8 -40q0 -34 -28 -68q-20 -16 -34 -22t-46 -6zM1042 344q-32 0 -61 28q-28 28 -28 70t27 70q28 28 60 28q78 0 102 -60q8 -18 8 -40
q0 -34 -28 -68q-20 -16 -34 -22t-46 -6z" />
    <glyph glyph-name="uni2684" unicode="&#x2684;" horiz-adv-x="1546" 
d="M1239 255v924h-927v-924h927zM188 1303h1175v-1172h-1175v1172zM490 894q-32 0 -61 28q-28 28 -28 70t27 70q28 28 60 28q78 0 102 -60q8 -18 8 -40q0 -34 -28 -68q-20 -16 -34 -22t-46 -6zM490 344q-32 0 -61 28q-28 28 -28 70t27 70q28 28 60 28q78 0 102 -60
q8 -18 8 -40q0 -34 -28 -68q-20 -16 -34 -22t-46 -6zM1042 894q-32 0 -61 28q-28 28 -28 70t27 70q28 28 60 28q78 0 102 -60q8 -18 8 -40q0 -34 -28 -68q-20 -16 -34 -22t-46 -6zM1042 344q-32 0 -61 28q-28 28 -28 70t27 70q28 28 60 28q78 0 102 -60q8 -18 8 -40
q0 -34 -28 -68q-20 -16 -34 -22t-46 -6zM874 726q0 -107 -110 -107q-30 0 -59 27q-28 28 -28 71t27 71t57 27q57 -1 85 -29t28 -60z" />
    <glyph glyph-name="uni2685" unicode="&#x2685;" horiz-adv-x="1546" 
d="M490 894q-32 0 -61 28q-28 28 -28 70t27 70q28 28 60 28q78 0 102 -60q8 -18 8 -40q0 -34 -28 -68q-20 -16 -34 -22t-46 -6zM598 726q0 -107 -110 -107q-30 0 -59 27q-28 28 -28 71t27 71t57 27q57 -1 85 -29t28 -60zM490 344q-32 0 -61 28q-28 28 -28 70t27 70
q28 28 60 28q78 0 102 -60q8 -18 8 -40q0 -34 -28 -68q-20 -16 -34 -22t-46 -6zM1042 894q-32 0 -61 28q-28 28 -28 70t27 70q28 28 60 28q78 0 102 -60q8 -18 8 -40q0 -34 -28 -68q-20 -16 -34 -22t-46 -6zM1150 726q0 -107 -110 -107q-30 0 -59 27q-28 28 -28 71t27 71
t57 27q57 -1 85 -29t28 -60zM1042 344q-32 0 -61 28q-28 28 -28 70t27 70q28 28 60 28q78 0 102 -60q8 -18 8 -40q0 -34 -28 -68q-20 -16 -34 -22t-46 -6zM1239 255v924h-927v-924h927zM188 1303h1175v-1172h-1175v1172z" />
    <glyph glyph-name="uni2686" unicode="&#x2686;" horiz-adv-x="1726" 
d="M976 732q0 45 24 70q41 43 87 43q47 -1 71 -25q42 -42 42 -89t-34 -79t-68 -32t-54 9q-68 31 -68 103zM1346 732q0 104 -37 193q-76 184 -255 259q-88 38 -190 38q-208 0 -346 -142t-138 -348q0 -104 37 -194q76 -185 254 -259q91 -38 193 -38q205 0 344 142
q138 142 138 349zM1496 732q0 -259 -186 -443q-84 -83 -200 -132t-247 -49t-247 49q-236 100 -336 330q-50 115 -50 245q0 258 186 442q185 181 447 181q133 -1 247 -49q236 -100 336 -330q50 -114 50 -244z" />
    <glyph glyph-name="uni2687" unicode="&#x2687;" horiz-adv-x="1726" 
d="M976 732q0 45 24 70q41 43 87 43q47 -1 71 -25q42 -42 42 -89t-34 -79t-68 -32t-54 9q-68 31 -68 103zM528 732q0 45 24 70q41 43 87 43q47 -1 71 -25q42 -42 42 -89t-34 -79t-68 -32t-54 9q-68 31 -68 103zM1346 732q0 104 -37 193q-76 184 -255 259q-88 38 -190 38
q-208 0 -346 -142t-138 -348q0 -104 37 -194q76 -185 254 -259q91 -38 193 -38q205 0 344 142q138 142 138 349zM1496 732q0 -259 -186 -443q-84 -83 -200 -132t-247 -49t-247 49q-236 100 -336 330q-50 115 -50 245q0 258 186 442q185 181 447 181q133 -1 247 -49
q236 -100 336 -330q50 -114 50 -244z" />
    <glyph glyph-name="uni2688" unicode="&#x2688;" horiz-adv-x="1726" 
d="M976 732q0 -72 68 -103q20 -9 42 -9q72 0 105 68q9 22 9 56t-24 58q-42 42 -88 43q-46 0 -79 -34q-33 -33 -33 -79zM1496 732q0 -259 -186 -443q-84 -83 -200 -132t-247 -49t-247 49q-236 100 -336 330q-50 115 -50 245q0 258 186 442q185 181 447 181q133 -1 247 -49
q236 -100 336 -330q50 -114 50 -244z" />
    <glyph glyph-name="uni2689" unicode="&#x2689;" horiz-adv-x="1726" 
d="M976 732q0 -72 68 -103q20 -9 42 -9q72 0 105 68q9 22 9 56t-24 58q-42 42 -88 43q-46 0 -79 -34q-33 -33 -33 -79zM639 620q72 0 104 68q9 22 9 56t-24 58q-42 42 -88 43q-46 -1 -70 -25t-33 -44t-9 -44q0 -46 33 -79t78 -33zM1496 732q0 -259 -186 -443
q-84 -83 -200 -132t-247 -49t-247 49q-236 100 -336 330q-50 115 -50 245q0 258 186 442q185 181 447 181q133 -1 247 -49q236 -100 336 -330q50 -114 50 -244z" />
    <glyph glyph-name="uni268A" unicode="&#x268a;" horiz-adv-x="1839" 
d="M188 837h1463v-240h-1463v240z" />
    <glyph glyph-name="uni268B" unicode="&#x268b;" horiz-adv-x="1839" 
d="M188 837h596v-240h-596v240zM1055 597v240h596v-240h-596z" />
    <glyph glyph-name="uni268C" unicode="&#x268c;" horiz-adv-x="1839" 
d="M188 597h1463v-240h-1463v240zM188 1077h1463v-240h-1463v240z" />
    <glyph glyph-name="uni268D" unicode="&#x268d;" horiz-adv-x="1839" 
d="M188 1077h596v-240h-596v240zM1055 837v240h596v-240h-596zM188 597h1463v-240h-1463v240z" />
    <glyph glyph-name="uni268E" unicode="&#x268e;" horiz-adv-x="1839" 
d="M1055 357v240h596v-240h-596zM188 597h596v-240h-596v240zM188 1077h1463v-240h-1463v240z" />
    <glyph glyph-name="uni268F" unicode="&#x268f;" horiz-adv-x="1839" 
d="M1055 837v240h596v-240h-596zM188 1077h596v-240h-596v240zM188 597h596v-240h-596v240zM1055 357v240h596v-240h-596z" />
    <glyph glyph-name="uni2690" unicode="&#x2690;" horiz-adv-x="1474" 
d="M289 653q207 0 396 -38q190 -38 347 -59q86 -7 153 -7v637q-171 0 -433 62q-261 62 -463 62v-657zM165 1434q320 0 526 -47t281 -57q152 -20 337 -20v-885q-116 0 -278 12t-266 33q-158 31 -313 50q-88 7 -163 7v-527h-124v1434z" />
    <glyph glyph-name="uni2691" unicode="&#x2691;" horiz-adv-x="1474" 
d="M165 1434q320 0 526 -47t281 -57q152 -20 337 -20v-885q-116 0 -278 12t-266 33q-158 31 -313 50q-88 7 -163 7v-527h-124v1434z" />
    <glyph glyph-name="uni2692" unicode="&#x2692;" horiz-adv-x="1593" 
d="M1528 923q0 -79 -90 -169l-208 208l-83 -83q-126 -126 -231 -241q68 -61 112 -97t88 -71q44 -36 82 -66q193 -153 214 -208q12 -26 12 -50t-11 -44q-36 -67 -101 -67q-22 0 -58 15q-48 20 -204 214q-151 188 -225 272q-73 -86 -103 -122t-63 -77t-54 -67t-98 -116
t-112 -104q-33 -15 -57 -15q-66 0 -101 69q-10 18 -10 42t16 62t125 126q42 36 94 78q160 126 272 227q-108 118 -231 241l-83 82l-186 -186l-169 169l186 186l-31 32l76 76l32 -31l186 186l169 -169l-186 -186l82 -83q128 -130 246 -236q133 123 246 236l83 82l-175 176
l169 170l175 -177l31 31l76 -76l-31 -31l37 -37q92 -92 92 -171z" />
    <glyph glyph-name="uni2693" unicode="&#x2693;" horiz-adv-x="1401" 
d="M809 1241q0 85 -67 115q-19 9 -42 9q-24 1 -44 -9t-34 -26q-30 -33 -31 -77q0 -45 24 -70q25 -25 43 -33t52 -9q34 0 66 33t33 67zM1328 411q24 -1 40 -17t16 -40v-167q0 -23 -16 -39t-40 -17q-24 0 -38 17q-17 14 -17 39v40q-96 -151 -245 -233q-150 -87 -329 -87
q-262 0 -465 187q-63 58 -110 133v-40q0 -24 -15 -40t-38 -16t-39 16t-16 40v167q0 25 16 41t39 16h163q23 0 39 -16t16 -40t-16 -40t-39 -16h-23q69 -121 189 -193q39 -17 85 -17t91 51q38 51 38 101v676h-218v115h301q-89 0 -153 63t-64 153q0 91 64 164q66 66 155 66
t155 -66q63 -71 63 -161q0 -92 -61 -155q-61 -64 -155 -64h301v-115h-218v-676q0 -55 39 -103t105 -48q82 0 176 98q48 50 85 111h-25q-22 1 -38 17t-16 40t16 39q16 16 38 16h164z" />
    <glyph glyph-name="uni2694" unicode="&#x2694;" horiz-adv-x="1559" 
d="M1444 478l-199 -172l194 -254l-102 -77l-194 252l-218 -132l-68 88l199 153l-277 372l-276 -372l199 -153l-68 -88l-218 132l-194 -252l-102 77l194 254l-199 172l67 89l200 -153l328 385l-452 620l56 39l465 -574l466 574l56 -39l-453 -620l329 -385l200 153z" />
    <glyph glyph-name="uni2695" unicode="&#x2695;" horiz-adv-x="981" 
d="M752 1243q18 0 32 18q-13 17 -33 17t-34 -17q17 -18 35 -18zM630 293q0 31 -120 53l-4 -130q96 36 110 51q14 14 14 26zM288 505q0 -34 88 -48l56 -10l-3 112q-141 -20 -141 -54zM679 751q1 19 -11 32q-29 33 -145 48l-4 -167q117 22 147 54q12 14 13 33zM229 1023
q0 -60 116 -79q35 -8 73 -12l-6 234q-183 -36 -183 -143zM133 1015q0 180 277 230l-4 137q0 60 44 72q8 4 20 4q42 0 62 -36q6 -12 6 -34v-22q-2 -10 -2 -43t-1 -62l60 5q19 0 57 2q29 44 76 44t86 -28q34 -30 34 -51t-4 -28h-92v-13q85 0 85 -58h-12q-6 36 -67 36t-99 20
l-63 -3q-22 -1 -63 -5l-7 -264q123 -20 163 -43q40 -22 63 -51q20 -30 20 -72q0 -78 -82 -123q-60 -33 -174 -55l-4 -141q46 -7 82 -17q138 -37 138 -123q0 -73 -132 -124q-85 -33 -96 -37l-6 -203h-52l-5 176q-115 -53 -133 -130l-67 25q33 117 198 188l-5 170
q-113 17 -164 46q-78 33 -78 95t73 101q49 23 161 46l-5 197q-144 21 -191 42q-97 45 -97 130z" />
    <glyph glyph-name="uni2696" unicode="&#x2696;" horiz-adv-x="1915" 
d="M419 351v561l-216 -561h216zM1385 351v561l-216 -561h216zM1488 351h223l-223 561v-561zM522 351h223l-223 561v-561zM1507 1164h185v-90h-167l296 -723q0 -166 -107 -269q-107 -107 -274 -107q-86 -1 -154 27q-139 56 -198 199q-28 68 -28 150l291 723h-333v-267h-133
v267h-326l296 -723q0 -166 -107 -269q-107 -107 -274 -107q-86 -1 -154 27q-139 56 -198 199q-28 68 -28 150l291 723h-170v90h194q-44 35 -44 92q0 43 31 78t78 35q48 1 72 -25q42 -43 42 -96q0 -52 -46 -84h343v270h133v-270h356q-44 35 -44 92q0 22 8 42q30 71 102 71
q50 0 80 -34q33 -33 33 -86q0 -52 -46 -85z" />
    <glyph glyph-name="uni2697" unicode="&#x2697;" horiz-adv-x="1517" 
d="M614 1315q-63 0 -133 -28t-126 -81t-91 -114q-35 -62 -58 -134q-46 -145 -46 -294h-140q0 260 94 451q44 91 104 156q173 187 421 187q85 0 171 -30q167 -58 244 -200q37 -70 37 -142q0 -128 -75 -210q-77 -77 -190 -77t-190 77q-75 81 -75 193q0 76 37 141q39 63 101 97
q-22 8 -85 8zM893 530v-403h-133v403h-286l-45 -403h-139l66 537h940l66 -537h-139l-45 403h-285z" />
    <glyph glyph-name="uni2698" unicode="&#x2698;" horiz-adv-x="1092" 
d="M658 1226q0 22 -14 54t-54 49q-20 8 -44 8q-48 0 -80 -32q-31 -35 -31 -69q0 -85 67 -116q18 -9 54 -9q36 -1 60 25t34 47q8 21 8 43zM908 930q88 -113 88 -259t-106 -254q-44 -45 -100 -87t-98 -86q-106 -108 -106 -244h-80q0 136 -106 244q-42 44 -98 86
q-124 94 -176 192q-30 58 -30 143q0 147 87 265h10q-11 -59 -11 -106q0 -90 68 -182q28 -40 66 -78q154 -154 190 -263v696q-84 22 -140 88q-55 65 -55 129q0 63 19 104q36 87 124 122q42 18 90 18q91 0 168 -68q70 -74 70 -164q0 -38 -16 -80q-58 -114 -180 -148v-697
q29 86 117 187q37 38 75 78t66 77t46 85q19 48 19 102q0 56 -11 100h10z" />
    <glyph glyph-name="uni2699" unicode="&#x2699;" horiz-adv-x="1726" 
d="M752 732q0 45 24 70q41 43 87 43q47 -1 71 -25q42 -42 42 -89t-34 -79t-68 -32t-54 9q-68 31 -68 103zM1346 732q0 104 -37 193q-76 184 -255 259q-88 38 -190 38q-208 0 -346 -142t-138 -348q0 -104 37 -194q76 -185 254 -259q91 -38 193 -38q205 0 344 142
q138 142 138 349zM1620 798v-132h-128q-21 -189 -139 -331l92 -91l-93 -93l-93 93q-144 -112 -330 -133v-136h-132v136q-185 21 -330 132l-92 -92l-93 93l91 91q-119 144 -140 331h-126v132h126q21 188 140 330l-91 93l93 93l94 -93q144 112 328 130v137h132v-137
q181 -17 328 -131l95 94l93 -93l-92 -93q117 -140 139 -330h128z" />
    <glyph glyph-name="uni269A" unicode="&#x269a;" horiz-adv-x="1180" 
d="M450 954q0 -52 25 -92q25 -38 69 -53v289q-44 -14 -69 -53t-25 -91zM730 954q0 52 -25 91t-69 53v-289q44 15 69 53q25 40 25 92zM685 1396q0 -40 -27 -68q-28 -27 -68 -27q-40 -1 -68 27t-28 68t28 68t68 27q40 0 68 -27q27 -28 27 -68zM327 1286q18 0 37 -12
q56 -37 87 -130q39 30 93 41v104q18 -9 46 -9t46 9v-104q54 -11 93 -41q31 94 87 130q19 12 37 12t267 -15v-45l-181 12l159 -43l-17 -41l-167 53l135 -77l-34 -30l-131 78l95 -91l-45 -17l-88 91l46 -94h-46l-51 82l-18 -56q42 -61 42 -121q0 -152 -109 -222
q-38 -21 -74 -28v-747q0 -24 -14 -35t-32 -11t-32 11t-14 35v747q-121 24 -170 148q-13 42 -13 102t42 121l-18 56l-51 -82h-46l46 94l-88 -91l-45 17l95 91l-131 -78l-34 30l135 77l-167 -53l-17 41l159 43l-181 -12v45q249 15 267 15z" />
    <glyph glyph-name="uni269B" unicode="&#x269b;" horiz-adv-x="1671" 
d="M973 536l45 3l2 43zM1018 855l1 47l-47 1zM651 582l2 -43l45 -3zM1061 685l34 33l-33 34zM608 752l-34 -34l34 -33v67zM698 902l-48 1v-48zM801 491l34 -34l33 34h-67zM868 945l-33 34l-34 -34h67zM966 468q-16 0 -27 -1l-48 -44q49 -39 96 -72l9 57q4 22 8 62
q-22 -2 -38 -2zM1084 852q0 -22 1 -33q7 -7 18 -20t26 -28q39 49 72 96l-57 9q-22 4 -62 8q2 -10 2 -32zM1084 580q0 -22 -2 -32q42 4 54 6l66 11q-29 39 -48 64q-20 25 -25 32q-10 -10 -19 -22t-25 -27q-1 -10 -1 -32zM706 468q-16 0 -38 2q4 -42 6 -54l11 -66q39 29 64 48
q25 20 32 25l-48 44q-11 1 -27 1zM700 964q22 0 33 1l48 44q-7 5 -38 29t-59 44q-8 -36 -16 -120q10 2 32 2zM588 586q0 16 -1 26q-4 4 -11 12q-28 32 -33 37q-40 -47 -73 -97q73 -12 120 -16q-2 22 -2 38zM972 964q22 0 32 -2q-4 40 -9 67t-8 53q-29 -21 -97 -73
q8 -6 18 -16q10 -11 20 -19t16 -9t28 -1zM588 846q0 16 2 38q-40 -4 -71 -9t-50 -8q18 -24 43 -56t31 -41q12 15 22 25l22 24q1 11 1 27zM835 633q-37 0 -59 25t-22 50q0 62 49 86q15 7 41 7t51 -25q24 -26 24 -60t-24 -58t-60 -25zM1430 631q76 44 76 84t-48 67
q-76 44 -180 69q-45 -66 -102 -135q60 -72 102 -136q109 26 152 51zM700 274q56 -228 136 -228q40 0 76 62q33 62 59 166q-66 45 -135 102q-72 -60 -136 -102zM345 294q0 -69 67 -69q70 0 207 82q-15 75 -24 169q-109 12 -168 23q-82 -136 -82 -205zM1245 499
q-78 -15 -169 -24q-15 -117 -24 -168q136 -82 205 -82q70 0 70 68q0 69 -82 206zM164 716q0 -41 62 -76q63 -34 168 -60q49 72 102 136q-60 73 -103 136q-163 -37 -213 -96q-16 -19 -16 -40zM836 1388q-41 0 -76 -62q-34 -63 -60 -168q72 -49 136 -102q64 53 136 102
q-57 230 -136 230zM416 1208q-72 0 -72 -67q0 -76 82 -209q81 15 170 24q12 114 23 169q-131 83 -203 83zM1328 1136q0 72 -67 72q-78 0 -209 -83q15 -75 24 -169q117 -15 168 -24q84 132 84 204zM656 791v-150l105 -105h150l104 105v150l-104 104h-151zM94 716
q0 136 259 200q-79 138 -79 212q0 150 150 150q75 0 212 -79q30 119 81 189t119 70q135 0 200 -259q138 79 212 79q150 0 150 -150q0 -75 -80 -213q186 -46 240 -134q18 -29 19 -65q-1 -36 -19 -66t-52 -54q-64 -49 -188 -80q79 -134 79 -211q0 -76 -37 -113t-113 -37
t-212 79q-46 -186 -134 -240q-29 -18 -65 -19q-36 1 -66 19t-54 52q-49 64 -80 188q-136 -79 -212 -79q-75 0 -112 37t-37 113t79 211q-182 46 -242 135q-18 31 -18 65z" />
    <glyph glyph-name="uni269C" unicode="&#x269c;" horiz-adv-x="1804" 
d="M1429 473q15 -2 49 -2q68 0 110 43q36 42 36 110t-46 120q-51 53 -140 53q-151 0 -226 -113q-28 -40 -41 -91l3 -2q77 97 191 97t141 -72q7 -18 7 -42t-19 -52t-65 -41v-8zM375 481q-84 24 -84 96t77 101q27 10 70 10q115 0 192 -97l3 2q-25 98 -102 154q-69 50 -165 50
q-90 0 -138 -52t-48 -120q0 -69 36 -111q43 -43 94 -43t65 2v8zM902 1350q-134 -173 -134 -317q0 -143 54 -285q53 -181 53 -297q-1 -115 -17 -180t-22 -91t-6 -72q0 -99 72 -167q72 68 72 175q0 41 -22 133t-23 196q0 103 17 171t46 159q29 92 36 133q8 41 8 113t-25 139
q-37 98 -109 190zM1120 993q0 -91 -19 -145t-35 -96t-29 -94q-30 -109 -30 -237l71 -3v10q0 216 102 330q102 115 242 115t219 -79q69 -73 69 -178t-64 -160t-149 -55q-86 0 -139 15v111q40 1 60 15t20 33q0 40 -74 40q-110 0 -165 -109q-19 -37 -19 -93l106 -4v-79h-104
q11 -80 90 -153l-52 -45q-108 70 -132 198h-76q3 -30 10 -53l14 -50q18 -58 18 -111q0 -168 -150 -279h-4q-150 103 -150 279q0 56 17 111l14 50q7 23 10 53h-75q-24 -128 -132 -198l-52 45q79 73 90 153h-104v79l106 4q0 100 -66 156q-53 46 -123 46q-69 0 -69 -40
q0 -19 20 -33t60 -15v-111q-54 -15 -111 -15q-114 0 -177 55q-64 55 -64 160t69 178q79 79 218 79t239 -109q106 -121 106 -336v-10l70 3q0 178 -43 290q-69 176 -69 282q0 255 213 463h10q213 -208 213 -463z" />
    <glyph glyph-name="uni269D" unicode="&#x269d;" horiz-adv-x="1671" 
d="M1630 896q0 -20 -38 -73t-114 -121t-149 -131l-18 74q146 127 195 181q48 53 48 61q0 25 -423 45q-170 4 -273 4h-151l20 63h131l190 -1q355 -11 438 -29q82 -19 113 -36t31 -37zM408 68v-12q0 -3 2 -11q119 0 630 383l111 86l16 -74l-90 -67q-340 -259 -553 -361
q-78 -38 -114 -37q-68 0 -68 88t26 196q26 109 50 200l55 -53q-65 -258 -65 -338zM1303 -25q-94 0 -394 199l56 43q197 -126 257 -150t81 -24q2 12 2 16v15q-1 80 -29 196q-91 369 -178 607h69q24 -70 27 -79l27 -81q151 -474 151 -651q0 -91 -69 -91zM84 890q0 49 126 74
q80 19 314 31l-26 -67q-338 -20 -338 -43q0 -17 72 -85t82 -78q11 -10 126 -111q115 -100 228 -183l131 -96l-62 -39l-108 80q-99 74 -205 159q-340 283 -340 358zM532 618l-57 41l19 58q24 79 56 167q155 436 259 544q27 30 49 30q45 0 108 -116q50 -81 134 -287h-72
q-137 334 -168 334t-133 -234t-195 -537z" />
    <glyph glyph-name="uni269E" unicode="&#x269e;" 
d="M1857 287l-1469 -679l-53 118l1469 679zM1804 735l-1469 679l53 118l1469 -679zM1805 506h-1614v129h1614v-129z" />
    <glyph glyph-name="uni269F" unicode="&#x269f;" 
d="M244 405l1469 -679l-53 -118l-1469 679zM191 853l1469 679l53 -118l-1469 -679zM243 635h1614v-129h-1614v129z" />
    <glyph glyph-name="uni26A0" unicode="&#x26a0;" horiz-adv-x="1764" 
d="M1000 248q0 -28 -10 -50t-25 -37t-37 -25t-49 -10q-25 0 -47 10t-38 24q-34 34 -34 87q0 52 34 89q40 36 76 36q91 0 120 -76q10 -21 10 -48zM972 430h-186v555h186v-555zM171 66h1416l-708 1254zM1693 -62h-1626q-17 0 -39 17t-21 39q0 21 8 39l812 1442q15 28 52 28
t52 -28l814 -1442q8 -18 8 -39q1 -21 -21 -38q-22 -18 -39 -18z" />
    <glyph glyph-name="uni26A1" unicode="&#x26a1;" horiz-adv-x="934" 
d="M125 774l759 684l27 -24l-554 -620l487 -110l2 -47l-800 -682l-23 25l576 622l-474 104v48z" />
    </font>
</defs>
</svg>
